<?xml version="1.0" encoding="UTF-8"?>
<!DOCTYPE svg PUBLIC "-//W3C//DTD SVG 1.1//EN" "http://www.w3.org/Graphics/SVG/1.1/DTD/svg11.dtd">
<svg xmlns="http://www.w3.org/2000/svg" version="1.1" width="73px" height="78px" style="shape-rendering:geometricPrecision; text-rendering:geometricPrecision; image-rendering:optimizeQuality; fill-rule:evenodd; clip-rule:evenodd" xmlns:xlink="http://www.w3.org/1999/xlink">
<g><path style="opacity:1" fill="#fdfdfd" d="M -0.5,-0.5 C 23.8333,-0.5 48.1667,-0.5 72.5,-0.5C 72.5,25.5 72.5,51.5 72.5,77.5C 48.1667,77.5 23.8333,77.5 -0.5,77.5C -0.5,51.5 -0.5,25.5 -0.5,-0.5 Z"/></g>
<g><path style="opacity:1" fill="#8096fd" d="M 45.5,15.5 C 46.1667,15.5 46.8333,15.5 47.5,15.5C 47.3433,16.8734 47.51,18.2068 48,19.5C 49.0113,18.6634 50.1779,18.33 51.5,18.5C 56.0301,22.3554 59.3634,27.0221 61.5,32.5C 63.2903,40.1406 62.6237,47.4739 59.5,54.5C 58.0937,54.9731 57.427,55.9731 57.5,57.5C 56.0937,57.9731 55.427,58.9731 55.5,60.5C 53.041,62.8049 50.3743,64.8049 47.5,66.5C 45.2188,66.0773 43.5521,66.744 42.5,68.5C 41.8333,68.5 41.1667,68.5 40.5,68.5C 36.8183,68.6653 33.1516,68.4986 29.5,68C 24.692,66.631 20.0253,65.131 15.5,63.5C 15.226,61.0194 13.8927,59.3527 11.5,58.5C 11.3404,56.847 10.6737,55.5137 9.5,54.5C 8.06694,52.4418 7.40027,50.1085 7.5,47.5C 7.5,42.1667 7.5,36.8333 7.5,31.5C 9.6191,30.0139 11.1191,28.0139 12,25.5C 14.5478,26.4174 17.0478,26.0841 19.5,24.5C 18.3112,23.5713 16.9778,23.238 15.5,23.5C 15.5,22.1667 15.5,20.8333 15.5,19.5C 16.791,19.7373 17.791,19.404 18.5,18.5C 19.1667,17.1667 20.1667,16.1667 21.5,15.5C 25.114,14.0981 28.9473,13.4314 33,13.5C 37.3152,13.4826 41.4818,14.1493 45.5,15.5 Z"/></g>
<g><path style="opacity:1" fill="#aeb3bc" d="M 62.5,28.5 C 62.5,29.8333 62.5,31.1667 62.5,32.5C 62.1667,32.5 61.8333,32.5 61.5,32.5C 59.3634,27.0221 56.0301,22.3554 51.5,18.5C 50.7377,16.7376 49.4044,15.7376 47.5,15.5C 46.8333,15.5 46.1667,15.5 45.5,15.5C 44.3192,13.9328 42.6526,13.0995 40.5,13C 35.1667,12.3333 29.8333,12.3333 24.5,13C 23.0577,13.3768 22.0577,14.2101 21.5,15.5C 20.1667,16.1667 19.1667,17.1667 18.5,18.5C 17.0222,18.238 15.6888,18.5713 14.5,19.5C 11.2811,23.0362 8.94774,27.0362 7.5,31.5C 5.86434,35.2095 5.19767,39.2095 5.5,43.5C 4.52056,40.3752 4.18723,37.0419 4.5,33.5C 11.3414,13.7426 25.0081,6.57598 45.5,12C 53.6781,15.0127 59.3448,20.5127 62.5,28.5 Z"/></g>
<g><path style="opacity:1" fill="#949fd5" d="M 45.5,15.5 C 41.4818,14.1493 37.3152,13.4826 33,13.5C 28.9473,13.4314 25.114,14.0981 21.5,15.5C 22.0577,14.2101 23.0577,13.3768 24.5,13C 29.8333,12.3333 35.1667,12.3333 40.5,13C 42.6526,13.0995 44.3192,13.9328 45.5,15.5 Z"/></g>
<g><path style="opacity:1" fill="#8c9de1" d="M 47.5,15.5 C 49.4044,15.7376 50.7377,16.7376 51.5,18.5C 50.1779,18.33 49.0113,18.6634 48,19.5C 47.51,18.2068 47.3433,16.8734 47.5,15.5 Z"/></g>
<g><path style="opacity:1" fill="#8499f1" d="M 18.5,18.5 C 17.791,19.404 16.791,19.7373 15.5,19.5C 15.5,20.8333 15.5,22.1667 15.5,23.5C 16.9778,23.238 18.3112,23.5713 19.5,24.5C 17.0478,26.0841 14.5478,26.4174 12,25.5C 11.1191,28.0139 9.6191,30.0139 7.5,31.5C 8.94774,27.0362 11.2811,23.0362 14.5,19.5C 15.6888,18.5713 17.0222,18.238 18.5,18.5 Z"/></g>
<g><path style="opacity:1" fill="#8b99eb" d="M 7.5,31.5 C 7.5,36.8333 7.5,42.1667 7.5,47.5C 7.16667,47.5 6.83333,47.5 6.5,47.5C 6.76781,45.901 6.43448,44.5676 5.5,43.5C 5.19767,39.2095 5.86434,35.2095 7.5,31.5 Z"/></g>
<g><path style="opacity:1" fill="#a1abd1" d="M 61.5,32.5 C 61.8333,32.5 62.1667,32.5 62.5,32.5C 63.8695,39.1551 63.7028,45.8217 62,52.5C 61.2917,53.3805 60.4584,54.0472 59.5,54.5C 62.6237,47.4739 63.2903,40.1406 61.5,32.5 Z"/></g>
<g><path style="opacity:1" fill="#b2b6ba" d="M 62.5,28.5 C 68.2118,44.4631 64.2118,57.6297 50.5,68C 34.45,75.9832 20.6167,73.1499 9,59.5C 3.78666,51.3249 2.28666,42.6582 4.5,33.5C 4.18723,37.0419 4.52056,40.3752 5.5,43.5C 6.43448,44.5676 6.76781,45.901 6.5,47.5C 5.90781,50.6305 6.90781,52.9639 9.5,54.5C 10.6737,55.5137 11.3404,56.847 11.5,58.5C 12.0798,60.7488 13.4131,62.4154 15.5,63.5C 16.7653,64.4793 18.0986,65.4793 19.5,66.5C 22.6405,67.0905 25.6405,67.9239 28.5,69C 32.6888,69.8119 36.6888,69.6453 40.5,68.5C 41.1667,68.5 41.8333,68.5 42.5,68.5C 44.403,68.2041 46.0697,67.5375 47.5,66.5C 50.3743,64.8049 53.041,62.8049 55.5,60.5C 56.9063,60.0269 57.573,59.0269 57.5,57.5C 58.9063,57.0269 59.573,56.0269 59.5,54.5C 60.4584,54.0472 61.2917,53.3805 62,52.5C 63.7028,45.8217 63.8695,39.1551 62.5,32.5C 62.5,31.1667 62.5,29.8333 62.5,28.5 Z"/></g>
<g><path style="opacity:1" fill="#8f9fe0" d="M 47.5,66.5 C 46.0697,67.5375 44.403,68.2041 42.5,68.5C 43.5521,66.744 45.2188,66.0773 47.5,66.5 Z"/></g>
<g><path style="opacity:1" fill="#9ea7d0" d="M 11.5,58.5 C 13.8927,59.3527 15.226,61.0194 15.5,63.5C 13.4131,62.4154 12.0798,60.7488 11.5,58.5 Z"/></g>
<g><path style="opacity:1" fill="#9ca5cf" d="M 57.5,57.5 C 57.573,59.0269 56.9063,60.0269 55.5,60.5C 55.427,58.9731 56.0937,57.9731 57.5,57.5 Z"/></g>
<g><path style="opacity:1" fill="#98a5d3" d="M 59.5,54.5 C 59.573,56.0269 58.9063,57.0269 57.5,57.5C 57.427,55.9731 58.0937,54.9731 59.5,54.5 Z"/></g>
<g><path style="opacity:1" fill="#9ea7d5" d="M 6.5,47.5 C 6.83333,47.5 7.16667,47.5 7.5,47.5C 7.40027,50.1085 8.06694,52.4418 9.5,54.5C 6.90781,52.9639 5.90781,50.6305 6.5,47.5 Z"/></g>
<g><path style="opacity:1" fill="#8c9be5" d="M 15.5,63.5 C 20.0253,65.131 24.692,66.631 29.5,68C 33.1516,68.4986 36.8183,68.6653 40.5,68.5C 36.6888,69.6453 32.6888,69.8119 28.5,69C 25.6405,67.9239 22.6405,67.0905 19.5,66.5C 18.0986,65.4793 16.7653,64.4793 15.5,63.5 Z"/></g>
</svg>
