<?xml version="1.0" encoding="UTF-8"?>
<svg version="1.1" xmlns="http://www.w3.org/2000/svg" width="113" height="107">
<path d="M0 0 C37.29 0 74.58 0 113 0 C113 35.31 113 70.62 113 107 C75.71 107 38.42 107 0 107 C0 71.69 0 36.38 0 0 Z " fill="#82F213" transform="translate(0,0)"/>
<path d="M0 0 C37.29 0 74.58 0 113 0 C113 35.31 113 70.62 113 107 C75.71 107 38.42 107 0 107 C0 71.69 0 36.38 0 0 Z M17.625 17.9296875 C7.45416956 30.88771667 4.46527129 43.89258784 6 60 C7.96151077 70.95176845 13.31820912 81.80651613 22 89 C22.66 89 23.32 89 24 89 C24 89.66 24 90.32 24 91 C26.15982683 92.3043898 28.32678696 93.59324782 30.5 94.875 C31.40105469 95.42220703 31.40105469 95.42220703 32.3203125 95.98046875 C43.15740559 102.32132109 56.36069309 102.60307139 68.515625 100.34765625 C81.90640491 96.26381892 92.85300142 87.83207519 99.64453125 75.6328125 C100.09183594 74.76398438 100.53914063 73.89515625 101 73 C101.62455078 71.82050781 101.62455078 71.82050781 102.26171875 70.6171875 C106.89593293 60.24305189 107.07484165 44.87615217 103.03515625 34.22265625 C102.52275391 33.12244141 102.52275391 33.12244141 102 32 C101.58621094 31.09121094 101.17242187 30.18242187 100.74609375 29.24609375 C94.47310085 16.68301533 83.90331041 8.19234777 70.73828125 3.296875 C65.69414456 1.71291087 60.8833195 1.50155762 55.625 1.5625 C54.23692139 1.57494751 54.23692139 1.57494751 52.82080078 1.58764648 C39.2419388 1.92347294 26.95388019 7.92805153 17.625 17.9296875 Z " fill="#FDFDFD" transform="translate(0,0)"/>
<path d="M0 0 C11.23856736 7.66614417 19.00394165 17.21207172 22.6875 30.5 C24.79531788 46.1839782 23.08367481 60.13487835 13.62890625 73.21875 C6.08767795 82.7012846 -4.71840103 90.45135627 -16.94921875 92.203125 C-32.61544833 93.38052263 -44.8583417 91.5376851 -57.94921875 82.203125 C-57.94921875 81.543125 -57.94921875 80.883125 -57.94921875 80.203125 C-58.52800781 79.96207031 -59.10679688 79.72101563 -59.703125 79.47265625 C-68.86188756 74.29596437 -72.81429254 62.82923529 -75.49121094 53.26708984 C-78.4310506 40.0190064 -75.50327765 26.80395938 -68.63671875 15.390625 C-53.25415875 -7.16615416 -23.62028769 -14.39116866 0 0 Z M-40.94921875 0.203125 C-42.34021328 0.57584332 -43.73563557 0.93283279 -45.13671875 1.265625 C-49.66831436 2.70820907 -52.91023179 5.26092852 -56.51171875 8.265625 C-57.04885498 8.71365479 -57.58599121 9.16168457 -58.1394043 9.62329102 C-59.45564648 10.76529005 -60.70864655 11.97934565 -61.94921875 13.203125 C-61.94921875 13.863125 -61.94921875 14.523125 -61.94921875 15.203125 C-62.60921875 15.203125 -63.26921875 15.203125 -63.94921875 15.203125 C-65.32844155 17.51824899 -66.65608957 19.83995275 -67.94921875 22.203125 C-68.30540283 22.84306396 -68.66158691 23.48300293 -69.02856445 24.14233398 C-72.25299226 30.55692767 -72.52335257 36.23198138 -72.38671875 43.328125 C-72.39380859 44.37355469 -72.40089844 45.41898438 -72.40820312 46.49609375 C-72.35889887 52.49604224 -71.78528614 56.89208103 -68.94921875 62.203125 C-68.28921875 62.203125 -67.62921875 62.203125 -66.94921875 62.203125 C-66.71332031 62.90566406 -66.47742188 63.60820313 -66.234375 64.33203125 C-62.40130919 72.89526339 -54.46223517 81.2387301 -45.94921875 85.203125 C-35.04310612 89.31655765 -23.02658985 89.76320201 -11.94921875 86.203125 C-11.94921875 85.543125 -11.94921875 84.883125 -11.94921875 84.203125 C-11.28921875 84.203125 -10.62921875 84.203125 -9.94921875 84.203125 C-10.66799945 77.16104795 -10.66799945 77.16104795 -11.94921875 70.203125 C-12.60921875 70.203125 -13.26921875 70.203125 -13.94921875 70.203125 C-14.09359375 69.254375 -14.23796875 68.305625 -14.38671875 67.328125 C-14.77857274 64.3096756 -14.77857274 64.3096756 -15.94921875 62.203125 C-16.60921875 62.203125 -17.26921875 62.203125 -17.94921875 62.203125 C-19.73995802 57.79582009 -21.40969305 53.34661605 -23.07421875 48.890625 C-23.35136719 48.15005859 -23.62851562 47.40949219 -23.9140625 46.64648438 C-24.59294902 44.83221868 -25.27115286 43.01769756 -25.94921875 41.203125 C-25.15773437 40.92339844 -24.36625 40.64367188 -23.55078125 40.35546875 C-20.26168479 38.89858669 -19.62115568 37.31900746 -17.94921875 34.203125 C-16.0509063 31.83023443 -14.46372234 30.95104033 -11.69921875 29.515625 C-7.78601043 27.3894209 -5.36246655 24.47047901 -2.625 21.0078125 C-0.85841236 19.1053335 0.67654598 18.20661442 3.05078125 17.203125 C3.05078125 16.543125 3.05078125 15.883125 3.05078125 15.203125 C4.04078125 14.873125 5.03078125 14.543125 6.05078125 14.203125 C5.57873006 9.95466425 3.16200603 7.93493212 0.05078125 5.203125 C-0.60921875 5.203125 -1.26921875 5.203125 -1.94921875 5.203125 C-1.94921875 4.543125 -1.94921875 3.883125 -1.94921875 3.203125 C-3.26921875 3.203125 -4.58921875 3.203125 -5.94921875 3.203125 C-5.94921875 2.543125 -5.94921875 1.883125 -5.94921875 1.203125 C-12.22169659 -2.32711379 -18.06297673 -3.20544946 -25.13671875 -3.234375 C-25.89645996 -3.24404297 -26.65620117 -3.25371094 -27.43896484 -3.26367188 C-32.67687499 -3.1860563 -36.23687209 -2.05559104 -40.94921875 0.203125 Z " fill="#AAB5B6" transform="translate(81.94921875,8.796875)"/>
<path d="M0 0 C2.51877411 2.11677525 3.69155035 4.16620577 4.9375 7.1875 C6.27062127 10.33757806 7.68039112 13.39811602 9.25 16.4375 C11 20 11 20 11 22 C11.66 22 12.32 22 13 22 C14.76462683 25.08809695 15 26.23312136 15 30 C15.66 30 16.32 30 17 30 C17.33820166 31.5823006 17.67035939 33.16589375 18 34.75 C18.185625 35.63171875 18.37125 36.5134375 18.5625 37.421875 C19 40 19 40 19 44 C18.34 44 17.68 44 17 44 C17 44.66 17 45.32 17 46 C6.06355157 49.51478688 -6.28539943 49.33897048 -17 45 C-28.01499545 39.08285368 -36.67016376 28.68921734 -41 17 C-41.51171875 14.34765625 -41.51171875 14.34765625 -41.6875 12.0625 C-41.78611328 10.90427734 -41.78611328 10.90427734 -41.88671875 9.72265625 C-41.92410156 9.15417969 -41.96148437 8.58570313 -42 8 C-41.01 8.495 -41.01 8.495 -40 9 C-40 10.98 -40 12.96 -40 15 C-39.34 15.33 -38.68 15.66 -38 16 C-37.67 16.66 -37.34 17.32 -37 18 C-37.33 18.66 -37.66 19.32 -38 20 C-37.01 20.33 -36.02 20.66 -35 21 C-35.33 22.32 -35.66 23.64 -36 25 C-32.23329225 24.74317902 -30.49174226 24.50579204 -27.8125 21.75 C-24.41289172 16.62341079 -24.41289172 16.62341079 -22 11 C-19.66666667 10.33333333 -17.33333333 9.66666667 -15 9 C-14.67 8.01 -14.34 7.02 -14 6 C-13.34 6 -12.68 6 -12 6 C-12 5.34 -12 4.68 -12 4 C-13.32 3.67 -14.64 3.34 -16 3 C-15.01 2.67 -14.02 2.34 -13 2 C-12.67 1.01 -12.34 0.02 -12 -1 C-11.01 -0.34 -10.02 0.32 -9 1 C-9 0.34 -9 -0.32 -9 -1 C-5.17456525 -2.27514492 -3.66576992 -1.52740413 0 0 Z " fill="#FD5802" transform="translate(53,49)"/>
<path d="M0 0 C3.48133831 1.39253532 4.47886033 2.63176216 6 6 C6.66 6.33 7.32 6.66 8 7 C9.03515625 9.14453125 9.03515625 9.14453125 10.0625 11.8125 C10.40410156 12.68519531 10.74570313 13.55789062 11.09765625 14.45703125 C15.15617895 25.89468614 13.88794551 39.99724618 9.12109375 51.03515625 C8.1875 52.6875 8.1875 52.6875 6 55 C2.75 55.875 2.75 55.875 0 56 C-0.309375 54.9275 -0.61875 53.855 -0.9375 52.75 C-2.39309845 49.31201508 -3.90937125 48.21666828 -7.3125 46.75 C-8.87204105 46.15880143 -10.43445078 45.57509971 -12 45 C-14.00699249 44.01410895 -16.01030767 43.02035504 -18 42 C-18 41.34 -18 40.68 -18 40 C-18.7425 39.7525 -19.485 39.505 -20.25 39.25 C-23.24505695 37.88861048 -24.72833173 36.3426579 -27 34 C-27.9075 33.46375 -28.815 32.9275 -29.75 32.375 C-30.4925 31.92125 -31.235 31.4675 -32 31 C-32 30.34 -32 29.68 -32 29 C-31.1028125 28.6596875 -31.1028125 28.6596875 -30.1875 28.3125 C-27.40804264 26.64482559 -26.59607362 24.79312884 -25 22 C-22.71330788 19.30497 -20.84277383 17.91693712 -17.6875 16.25 C-13.75235838 14.14279513 -11.32756494 11.16952687 -8.578125 7.70703125 C-7 6 -7 6 -4 5 C-2.61423077 3.37667033 -1.27358732 1.71275535 0 0 Z " fill="#01D19A" transform="translate(88,21)"/>
<path d="M0 0 C3.06898246 4.60347369 2.40525532 8.7429941 1.46484375 13.98046875 C-0.98454144 24.75508667 -0.98454144 24.75508667 -5 29 C-8.25 29.875 -8.25 29.875 -11 30 C-11.309375 28.9275 -11.61875 27.855 -11.9375 26.75 C-13.39309845 23.31201508 -14.90937125 22.21666828 -18.3125 20.75 C-19.87204105 20.15880143 -21.43445078 19.57509971 -23 19 C-25.00699249 18.01410895 -27.01030767 17.02035504 -29 16 C-29 15.34 -29 14.68 -29 14 C-29.7425 13.7525 -30.485 13.505 -31.25 13.25 C-34.23088821 11.89505081 -35.74251979 10.33030215 -38 8 C-40.13309192 6.76487921 -40.13309192 6.76487921 -42 6 C-42 5.34 -42 4.68 -42 4 C-38.93852743 3.49357075 -35.87567701 2.99600678 -32.8125 2.5 C-31.94818359 2.35691406 -31.08386719 2.21382812 -30.19335938 2.06640625 C-26.09473423 1.40685738 -22.16773976 0.79290734 -18 1 C-18.33 1.66 -18.66 2.32 -19 3 C-12.56971459 4.32388229 -6.5705166 5.24794402 0 5 C0 3.35 0 1.7 0 0 Z " fill="#06AEE9" transform="translate(99,47)"/>
<path d="M0 0 C3.20992988 2.62801277 4.21700418 5.66472305 5.625 9.5 C6.05039062 10.6446875 6.47578125 11.789375 6.9140625 12.96875 C7.63149889 14.97137819 8.32730136 16.98190407 9 19 C9.66 19 10.32 19 11 19 C12.76462683 22.08809695 13 23.23312136 13 27 C13.66 27 14.32 27 15 27 C15.33820166 28.5823006 15.67035939 30.16589375 16 31.75 C16.185625 32.63171875 16.37125 33.5134375 16.5625 34.421875 C17 37 17 37 17 41 C16.34 41 15.68 41 15 41 C15 41.66 15 42.32 15 43 C9.96272323 44.63124248 5.59724282 45.32131282 0.25 45.375 C-1.69132812 45.41753906 -1.69132812 45.41753906 -3.671875 45.4609375 C-7 45 -7 45 -8.953125 42.9765625 C-9.29859375 42.32429688 -9.6440625 41.67203125 -10 41 C-8.68 38.36 -7.36 35.72 -6 33 C-5.34 33 -4.68 33 -4 33 C-4.19335938 32.16984375 -4.38671875 31.3396875 -4.5859375 30.484375 C-5.05991038 26.49584846 -4.49141536 23.11846856 -3.625 19.25 C-3.48578125 18.57839844 -3.3465625 17.90679687 -3.203125 17.21484375 C-2.16580466 12.33160932 -2.16580466 12.33160932 -1 10 C-0.77377919 8.29636178 -0.59111527 6.58671299 -0.4375 4.875 C-0.35371094 3.96492188 -0.26992188 3.05484375 -0.18359375 2.1171875 C-0.12300781 1.41851562 -0.06242187 0.71984375 0 0 Z " fill="#FB0D02" transform="translate(55,52)"/>
<path d="M0 0 C3.58129639 1.67127165 6.27906724 3.16076581 9 6 C9.86625 6.515625 10.7325 7.03125 11.625 7.5625 C14 9 14 9 15 11 C16.64316759 11.72264962 18.31525669 12.38043386 20 13 C29.46938776 16.91836735 29.46938776 16.91836735 31.625 21.3125 C31.74875 22.199375 31.8725 23.08625 32 24 C33.98 24 35.96 24 38 24 C34.05646367 31.88707265 26.40507957 39.10877902 18 42 C15.734375 41.62109375 15.734375 41.62109375 14 41 C14.66 41 15.32 41 16 41 C15.855625 40.40832031 15.71125 39.81664062 15.5625 39.20703125 C14.59177306 35.07470059 13.72406298 31.2770238 14 27 C13.34 27 12.68 27 12 27 C11.34 24.36 10.68 21.72 10 19 C9.34 19 8.68 19 8 19 C4.7291421 12.80734808 1.99613268 6.7186905 0 0 Z " fill="#8A4E72" transform="translate(56,52)"/>
<path d="M0 0 C0.66 0.33 1.32 0.66 2 1 C1.37755401 2.27208622 0.75193233 3.54261882 0.125 4.8125 C-0.22304688 5.52019531 -0.57109375 6.22789063 -0.9296875 6.95703125 C-2 9 -2 9 -4 12 C-4.66 12 -5.32 12 -6 12 C-6.27585937 12.56203125 -6.55171875 13.1240625 -6.8359375 13.703125 C-7.60411006 15.21884804 -8.42176419 16.71060875 -9.2890625 18.171875 C-14.91416246 29.02733107 -14.9516125 43.7759957 -12.16015625 55.5390625 C-11.00055133 57.99883052 -10.01648773 59.22628352 -8 61 C-6.83516749 62.44320316 -5.69049632 63.90282663 -4.5625 65.375 C-3.63244141 66.57189453 -3.63244141 66.57189453 -2.68359375 67.79296875 C-1.46017349 69.39675633 -0.27917577 71.0331814 0.875 72.6875 C8.16286273 80.61840944 17.10462577 83.39553538 27.609375 84.31640625 C36.80365247 84.61207285 44.38924143 82.97197214 53 80 C52 83 52 83 50.4375 84.1875 C46.88877617 85.37040794 43.73298379 85.12443279 40 85 C40 85.66 40 86.32 40 87 C34.35031528 90.76645648 25.77232022 89.58116978 19.2109375 88.5703125 C12.28462492 86.74284892 5.81035119 83.14311983 0 79 C0 78.34 0 77.68 0 77 C-0.57878906 76.75894531 -1.15757813 76.51789063 -1.75390625 76.26953125 C-10.91266881 71.09283937 -14.86507379 59.62611029 -17.54199219 50.06396484 C-20.48183185 36.8158814 -17.5540589 23.60083438 -10.6875 12.1875 C-7.60270389 7.58033698 -4.13564643 3.68311369 0 0 Z " fill="#B4B3B1" transform="translate(24,12)"/>
<path d="M0 0 C0.66 0.33 1.32 0.66 2 1 C0.96905133 3.57737166 0.4891374 4.76284247 -2.0625 6 C-3.0215625 6.495 -3.0215625 6.495 -4 7 C-4.185625 7.928125 -4.185625 7.928125 -4.375 8.875 C-5.20532173 11.69809388 -6.74767647 12.13965717 -9.17578125 13.5859375 C-12.48066081 16.14774992 -14.78097144 19.6209927 -17.265625 22.953125 C-17.83796875 23.62859375 -18.4103125 24.3040625 -19 25 C-19.66 25 -20.32 25 -21 25 C-21.2475 25.53625 -21.495 26.0725 -21.75 26.625 C-23.29665225 29.56363927 -25.1451936 32.24770663 -27 35 C-27.33 35.66 -27.66 36.32 -28 37 C-29.61394186 34.98635772 -31.21593352 32.96485076 -32.8125 30.9375 C-33.49022461 30.09541992 -33.49022461 30.09541992 -34.18164062 29.23632812 C-38.27659386 24.00554844 -41.16630366 18.83805247 -41.6875 12.0625 C-41.78611328 10.90427734 -41.78611328 10.90427734 -41.88671875 9.72265625 C-41.92410156 9.15417969 -41.96148437 8.58570313 -42 8 C-41.01 8.495 -41.01 8.495 -40 9 C-40 10.98 -40 12.96 -40 15 C-39.34 15.33 -38.68 15.66 -38 16 C-37.67 16.66 -37.34 17.32 -37 18 C-37.33 18.66 -37.66 19.32 -38 20 C-37.01 20.33 -36.02 20.66 -35 21 C-35.33 22.32 -35.66 23.64 -36 25 C-32.23329225 24.74317902 -30.49174226 24.50579204 -27.8125 21.75 C-24.41289172 16.62341079 -24.41289172 16.62341079 -22 11 C-19.66666667 10.33333333 -17.33333333 9.66666667 -15 9 C-14.67 8.01 -14.34 7.02 -14 6 C-13.34 6 -12.68 6 -12 6 C-12 5.34 -12 4.68 -12 4 C-13.32 3.67 -14.64 3.34 -16 3 C-15.01 2.67 -14.02 2.34 -13 2 C-12.67 1.01 -12.34 0.02 -12 -1 C-11.01 -0.34 -10.02 0.32 -9 1 C-9 0.34 -9 -0.32 -9 -1 C-5.20720018 -2.26426661 -3.65934648 -1.40145184 0 0 Z " fill="#FCA004" transform="translate(53,49)"/>
<path d="M0 0 C6.04372622 3.91531804 9.16639005 7.24824395 11.12890625 14.234375 C11.38671875 14.89566406 11.64453125 15.55695312 11.91015625 16.23828125 C13.39515625 16.73328125 13.39515625 16.73328125 14.91015625 17.23828125 C14.91015625 18.88828125 14.91015625 20.53828125 14.91015625 22.23828125 C14.41515625 20.75328125 14.41515625 20.75328125 13.91015625 19.23828125 C13.25015625 18.90828125 12.59015625 18.57828125 11.91015625 18.23828125 C9.91015625 17.23828125 9.91015625 17.23828125 8.91015625 14.23828125 C6.91350027 12.56760992 4.91364591 10.90075139 2.91015625 9.23828125 C2.91015625 8.57828125 2.91015625 7.91828125 2.91015625 7.23828125 C0.43515625 6.24828125 0.43515625 6.24828125 -2.08984375 5.23828125 C-2.08984375 4.57828125 -2.08984375 3.91828125 -2.08984375 3.23828125 C-3.40984375 3.23828125 -4.72984375 3.23828125 -6.08984375 3.23828125 C-6.08984375 2.57828125 -6.08984375 1.91828125 -6.08984375 1.23828125 C-12.42026919 -1.43385813 -18.48487939 -2.0867231 -25.27734375 -2.13671875 C-26.41695557 -2.15702148 -26.41695557 -2.15702148 -27.57958984 -2.17773438 C-32.83853134 -2.13647879 -36.36145628 -1.04004589 -41.08984375 1.23828125 C-42.56316148 1.67517942 -44.04175649 2.09512016 -45.52734375 2.48828125 C-50.76357626 4.15271942 -54.24900084 7.41836937 -58.08984375 11.23828125 C-58.74984375 10.90828125 -59.40984375 10.57828125 -60.08984375 10.23828125 C-57.23453852 3.1394561 -53.79859033 -0.13380802 -47.00390625 -3.5703125 C-31.39196689 -9.95320996 -14.44615028 -8.23667987 0 0 Z " fill="#99BE9C" transform="translate(82.08984375,8.76171875)"/>
<path d="M0 0 C0.33 0.99 0.66 1.98 1 3 C0.41347656 3.50015625 -0.17304687 4.0003125 -0.77734375 4.515625 C-3.59324995 7.66310539 -4.96149474 10.87880525 -6.5625 14.75 C-6.85318359 15.42804688 -7.14386719 16.10609375 -7.44335938 16.8046875 C-12.63424086 27.61987207 -12.63424086 27.61987207 -15 39 C-13.2984375 39.185625 -13.2984375 39.185625 -11.5625 39.375 C-10.386875 39.58125 -9.21125 39.7875 -8 40 C-7.67 40.66 -7.34 41.32 -7 42 C-14.57150256 40.90091092 -20.36300447 38.30146008 -26 33 C-26.98828125 31.0703125 -26.98828125 31.0703125 -27 29 C-25.63671875 26.640625 -25.63671875 26.640625 -23.6875 24.25 C-23.05199219 23.45078125 -22.41648437 22.6515625 -21.76171875 21.828125 C-21.18035156 21.22484375 -20.59898438 20.6215625 -20 20 C-19.34 20 -18.68 20 -18 20 C-17.74992187 19.43539062 -17.49984375 18.87078125 -17.2421875 18.2890625 C-15.81096116 15.6516454 -14.1145606 13.61982498 -12.125 11.375 C-11.44695313 10.59898438 -10.76890625 9.82296875 -10.0703125 9.0234375 C-8 7 -8 7 -5.8046875 5.9140625 C-3.63644292 5.08171805 -3.63644292 5.08171805 -3 2 C-2.01 1.34 -1.02 0.68 0 0 Z " fill="#FE6B01" transform="translate(52,54)"/>
<path d="M0 0 C3.58129639 1.67127165 6.27906724 3.16076581 9 6 C9.86625 6.515625 10.7325 7.03125 11.625 7.5625 C14 9 14 9 15 11 C16.64316759 11.72264962 18.31525669 12.38043386 20 13 C29.46938776 16.91836735 29.46938776 16.91836735 31.625 21.3125 C31.74875 22.199375 31.8725 23.08625 32 24 C33.98 24 35.96 24 38 24 C36.47793991 26.62901288 35.15634036 28.84365964 33 31 C31.01178687 31.39764263 29.01055661 31.73775349 27 32 C26.67 30.68 26.34 29.36 26 28 C25.34 28 24.68 28 24 28 C24 29.98 24 31.96 24 34 C23.01 34 22.02 34 21 34 C20.80083984 32.78763672 20.80083984 32.78763672 20.59765625 31.55078125 C20.42105469 30.48214844 20.24445313 29.41351563 20.0625 28.3125 C19.88847656 27.25675781 19.71445313 26.20101562 19.53515625 25.11328125 C19.35855469 24.08589844 19.18195313 23.05851562 19 22 C18.89558594 21.08605469 18.79117188 20.17210938 18.68359375 19.23046875 C18.23162733 16.86079596 18.23162733 16.86079596 16.1796875 15.92578125 C15.10074219 15.46751953 15.10074219 15.46751953 14 15 C12.66448567 13.77532795 11.37454435 12.49977248 10.125 11.1875 C7.68134539 8.66605115 5.25014469 6.30817173 2.5 4.125 C1.675 3.42375 0.85 2.7225 0 2 C0 1.34 0 0.68 0 0 Z " fill="#5F6CA1" transform="translate(56,52)"/>
<path d="M0 0 C2.27883174 0.92926424 4.44244384 1.89908036 6.5859375 3.10546875 C6.5859375 3.76546875 6.5859375 4.42546875 6.5859375 5.10546875 C7.9059375 5.10546875 9.2259375 5.10546875 10.5859375 5.10546875 C10.5859375 5.76546875 10.5859375 6.42546875 10.5859375 7.10546875 C11.730625 7.47671875 11.730625 7.47671875 12.8984375 7.85546875 C15.87754829 9.24110167 17.05618435 10.21593502 18.5859375 13.10546875 C18.2734375 15.35546875 18.2734375 15.35546875 17.5859375 17.10546875 C16.9259375 17.10546875 16.2659375 17.10546875 15.5859375 17.10546875 C15.0909375 18.59046875 15.0909375 18.59046875 14.5859375 20.10546875 C13.5959375 20.43546875 12.6059375 20.76546875 11.5859375 21.10546875 C9.8390006 22.86672264 9.8390006 22.86672264 8.1484375 24.98046875 C5.84688033 27.77117118 3.7099683 30.22980811 0.5859375 32.10546875 C-0.8990625 31.61046875 -0.8990625 31.61046875 -2.4140625 31.10546875 C1.19921875 26.41796875 1.19921875 26.41796875 2.5859375 25.10546875 C3.5759375 25.10546875 4.5659375 25.10546875 5.5859375 25.10546875 C5.7921875 24.50734375 5.9984375 23.90921875 6.2109375 23.29296875 C7.5859375 21.10546875 7.5859375 21.10546875 10.5234375 19.66796875 C13.95545027 17.91694183 14.92926142 16.51085848 16.5859375 13.10546875 C15.8021875 13.62109375 15.0184375 14.13671875 14.2109375 14.66796875 C13.3446875 15.14234375 12.4784375 15.61671875 11.5859375 16.10546875 C10.9259375 15.77546875 10.2659375 15.44546875 9.5859375 15.10546875 C9.864375 14.20828125 9.864375 14.20828125 10.1484375 13.29296875 C10.80687437 10.94138113 10.80687437 10.94138113 9.5859375 8.10546875 C6.58586479 6.39691853 6.58586479 6.39691853 3.5859375 5.10546875 C2.9259375 5.76546875 2.2659375 6.42546875 1.5859375 7.10546875 C0.5959375 7.10546875 -0.3940625 7.10546875 -1.4140625 7.10546875 C-1.4140625 5.10546875 -1.4140625 5.10546875 0.5859375 3.10546875 C-0.4040625 3.10546875 -1.3940625 3.10546875 -2.4140625 3.10546875 C-2.7440625 3.76546875 -3.0740625 4.42546875 -3.4140625 5.10546875 C-4.0740625 5.10546875 -4.7340625 5.10546875 -5.4140625 5.10546875 C-5.4140625 4.44546875 -5.4140625 3.78546875 -5.4140625 3.10546875 C-10.21257614 1.14719683 -14.21324164 0.98862564 -19.2890625 1.48046875 C-19.97742187 1.5371875 -20.66578125 1.59390625 -21.375 1.65234375 C-23.05563939 1.79239703 -24.73502255 1.9473912 -26.4140625 2.10546875 C-19.22457376 -2.68752374 -8.26843532 -2.16644358 0 0 Z M-13.4140625 30.10546875 C-7.4140625 30.10546875 -7.4140625 30.10546875 -4.4140625 31.10546875 C-4.0840625 32.09546875 -3.7540625 33.08546875 -3.4140625 34.10546875 C-4.3421875 34.97171875 -4.3421875 34.97171875 -5.2890625 35.85546875 C-7.47485834 37.92779314 -7.47485834 37.92779314 -8.4140625 40.29296875 C-8.9090625 41.19015625 -8.9090625 41.19015625 -9.4140625 42.10546875 C-10.7340625 42.43546875 -12.0540625 42.76546875 -13.4140625 43.10546875 C-13.4140625 38.81546875 -13.4140625 34.52546875 -13.4140625 30.10546875 Z " fill="#04F341" transform="translate(69.4140625,6.89453125)"/>
<path d="M0 0 C3.82524236 1.450954 5.19090966 3.38181932 7 7 C7 9 7 9 5.4375 10.6875 C2.02821993 12.52326619 -0.30221767 11.78222319 -4 11 C-4.33 10.01 -4.66 9.02 -5 8 C-7.12821884 10.81711646 -7.12821884 10.81711646 -9 14 C-8.67 14.99 -8.34 15.98 -8 17 C-6.68 16.67 -5.36 16.34 -4 16 C-5 19 -5 19 -8.4375 20.9375 C-21.40516409 27 -21.40516409 27 -26 27 C-26 27.99 -26 28.98 -26 30 C-27.98 30.33 -29.96 30.66 -32 31 C-32 30.34 -32 29.68 -32 29 C-31.1028125 28.6596875 -31.1028125 28.6596875 -30.1875 28.3125 C-27.40804264 26.64482559 -26.59607362 24.79312884 -25 22 C-22.71330788 19.30497 -20.84277383 17.91693712 -17.6875 16.25 C-13.75235838 14.14279513 -11.32756494 11.16952687 -8.578125 7.70703125 C-7 6 -7 6 -4 5 C-2.61423077 3.37667033 -1.27358732 1.71275535 0 0 Z " fill="#01EE4F" transform="translate(88,21)"/>
<path d="M0 0 C2.78444954 2.70255396 5.33413827 5.40080229 7.75 8.4375 C15.21931407 17.13906131 24.39131814 20.33300516 35.609375 21.31640625 C44.80365247 21.61207285 52.38924143 19.97197214 61 17 C60 20 60 20 58.4375 21.1875 C54.88877617 22.37040794 51.73298379 22.12443279 48 22 C48 22.66 48 23.32 48 24 C42.35031528 27.76645648 33.77232022 26.58116978 27.2109375 25.5703125 C20.28462492 23.74284892 13.81035119 20.14311983 8 16 C8 15.34 8 14.68 8 14 C7.34 14 6.68 14 6 14 C5.62875 12.3603125 5.62875 12.3603125 5.25 10.6875 C3.91665881 6.75414348 3.21092415 6.24764691 0 4 C0 2.68 0 1.36 0 0 Z " fill="#BDABA5" transform="translate(16,75)"/>
<path d="M0 0 C2.9375 0.375 2.9375 0.375 6 1 C6.33 1.66 6.66 2.32 7 3 C11.88665544 5.29373623 16.93668936 7.13456976 22 9 C22 9.66 22 10.32 22 11 C23.65 11.66 25.3 12.32 27 13 C27.33 12.67 27.66 12.34 28 12 C29.66617115 11.95936168 31.33388095 11.957279 33 12 C33 13.32 33 14.64 33 16 C33.66 16 34.32 16 35 16 C35 16.66 35 17.32 35 18 C37.43929746 16.07423885 39.80090595 14.19909405 42 12 C41.52581687 16.97892286 40.28028507 20.18777681 37 24 C33.75 24.875 33.75 24.875 31 25 C30.690625 23.9275 30.38125 22.855 30.0625 21.75 C28.60690155 18.31201508 27.09062875 17.21666828 23.6875 15.75 C22.12795895 15.15880143 20.56554922 14.57509971 19 14 C16.99300751 13.01410895 14.98969233 12.02035504 13 11 C13 10.34 13 9.68 13 9 C12.2575 8.7525 11.515 8.505 10.75 8.25 C7.76911179 6.89505081 6.25748021 5.33030215 4 3 C1.86690808 1.76487921 1.86690808 1.76487921 0 1 C0 0.67 0 0.34 0 0 Z " fill="#308ACF" transform="translate(57,52)"/>
<path d="M0 0 C1.56073255 2.34109882 2.86373867 4.56333403 4.125 7.0625 C4.47820313 7.75472656 4.83140625 8.44695312 5.1953125 9.16015625 C6 11 6 11 6 13 C6.66 13 7.32 13 8 13 C9.76462683 16.08809695 10 17.23312136 10 21 C10.66 21 11.32 21 12 21 C12.33820166 22.5823006 12.67035939 24.16589375 13 25.75 C13.185625 26.63171875 13.37125 27.5134375 13.5625 28.421875 C14 31 14 31 14 35 C13.34 35 12.68 35 12 35 C12 35.66 12 36.32 12 37 C6.84053135 38.7041678 2.5574667 39.22225605 -2.9375 39.125 C-3.62134766 39.11597656 -4.30519531 39.10695312 -5.00976562 39.09765625 C-6.67333287 39.07438958 -8.33671631 39.03853167 -10 39 C-10 38.67 -10 38.34 -10 38 C-4.06 37.67 1.88 37.34 8 37 C4.61309023 21.41758945 4.61309023 21.41758945 0.48046875 6.0234375 C0 4 0 4 0 0 Z " fill="#C22939" transform="translate(58,58)"/>
<path d="M0 0 C0.66 0.33 1.32 0.66 2 1 C0.98577375 3.66516121 0.30611629 4.81555943 -2.171875 6.30859375 C-3.44804688 6.86740234 -3.44804688 6.86740234 -4.75 7.4375 C-7.94959876 8.92696839 -10.62977708 10.31814948 -13.25 12.6875 C-16.14629747 15.12302288 -18.44422629 15.86861745 -22 17 C-22.66 17.99 -23.32 18.98 -24 20 C-24.66 19.67 -25.32 19.34 -26 19 C-25.525625 18.236875 -25.05125 17.47375 -24.5625 16.6875 C-22.89893903 14.03589452 -22.89893903 14.03589452 -22 11 C-19.66666667 10.33333333 -17.33333333 9.66666667 -15 9 C-14.67 8.01 -14.34 7.02 -14 6 C-13.34 6 -12.68 6 -12 6 C-12 5.34 -12 4.68 -12 4 C-13.32 3.67 -14.64 3.34 -16 3 C-15.01 2.67 -14.02 2.34 -13 2 C-12.67 1.01 -12.34 0.02 -12 -1 C-11.01 -0.34 -10.02 0.32 -9 1 C-9 0.34 -9 -0.32 -9 -1 C-5.20720018 -2.26426661 -3.65934648 -1.40145184 0 0 Z " fill="#FED501" transform="translate(53,49)"/>
<path d="M0 0 C0.33 0.99 0.66 1.98 1 3 C0.360625 3.598125 -0.27875 4.19625 -0.9375 4.8125 C-3.20310389 6.90810337 -3.20310389 6.90810337 -4 10 C-5.1256934 11.1256934 -6.25575258 12.24732587 -7.40625 13.34765625 C-10.8992527 16.96907817 -13.8938447 21.04783421 -17 25 C-17.72058594 25.86625 -18.44117188 26.7325 -19.18359375 27.625 C-21.1625943 29.94588707 -21.1625943 29.94588707 -22 33 C-23.9375 32.6875 -23.9375 32.6875 -26 32 C-26.33 31.01 -26.66 30.02 -27 29 C-25.63671875 26.73828125 -25.63671875 26.73828125 -23.6875 24.3125 C-23.05199219 23.50425781 -22.41648437 22.69601563 -21.76171875 21.86328125 C-21.18035156 21.24839844 -20.59898438 20.63351563 -20 20 C-19.34 20 -18.68 20 -18 20 C-17.74992187 19.43539062 -17.49984375 18.87078125 -17.2421875 18.2890625 C-15.81096116 15.6516454 -14.1145606 13.61982498 -12.125 11.375 C-11.44695313 10.59898438 -10.76890625 9.82296875 -10.0703125 9.0234375 C-8 7 -8 7 -5.8046875 5.9140625 C-3.63644292 5.08171805 -3.63644292 5.08171805 -3 2 C-2.01 1.34 -1.02 0.68 0 0 Z " fill="#FE8401" transform="translate(52,54)"/>
<path d="M0 0 C3.42738776 2.64886755 3.7162606 5.40977375 4.4375 9.5625 C4.68164077 10.90009752 4.92783152 12.23732206 5.17578125 13.57421875 C5.37034912 14.640354 5.37034912 14.640354 5.56884766 15.72802734 C6.34052315 19.79439889 7.23178728 23.83389033 8.125 27.875 C8.29572021 28.66592041 8.46644043 29.45684082 8.64233398 30.27172852 C9.1891886 33.93828384 9.1891886 33.93828384 11 37 C11.04080783 38.99958364 11.04254356 41.00045254 11 43 C8.36 43.33 5.72 43.66 3 44 C3.2475 42.824375 3.2475 42.824375 3.5 41.625 C4.65960893 33.21783527 3.79567552 25.10117933 2.5625 16.75 C2.42779297 15.79609375 2.29308594 14.8421875 2.15429688 13.859375 C1.49512347 9.22908375 0.79651807 4.60897835 0 0 Z " fill="#DB1723" transform="translate(55,52)"/>
<path d="M0 0 C0.33 0 0.66 0 1 0 C1.31629548 5.69331867 0.56246597 10.01879528 -1.2109375 15.421875 C-1.99460657 17.98237789 -2.52341303 20.49165506 -3 23.125 C-3.60251284 26.37244209 -4.40813714 29.30441148 -5.625 32.375 C-7.23643616 35.97716242 -7.23643616 35.97716242 -7 40 C-6.01 40.66 -5.02 41.32 -4 42 C-8.44870215 42.39253254 -11.14243493 41.15305957 -15 39 C-13.95868149 36.83726156 -12.88262555 34.8213867 -11.5625 32.8125 C-9.79156396 29.62481513 -8.78257346 26.47249269 -7.74609375 22.98828125 C-7 21 -7 21 -5 19 C-4.39474956 16.93659814 -4.39474956 16.93659814 -4 14.625 C-3.39590203 11.39954834 -2.48694889 8.91441982 -1 6 C-0.61709538 4.00889599 -0.27395385 2.00899487 0 0 Z M-4 28 C-3.67 28.99 -3.34 29.98 -3 31 C-3.66 31 -4.32 31 -5 31 C-4.67 30.01 -4.34 29.02 -4 28 Z " fill="#FD3101" transform="translate(54,54)"/>
<path d="M0 0 C3.92488093 3.70060202 7.02215543 7.4906925 10 12 C10 12.66 10 13.32 10 14 C10.66 14 11.32 14 12 14 C12.66 17.63 13.32 21.26 14 25 C14.66 25 15.32 25 16 25 C16.33 27.31 16.66 29.62 17 32 C17.33 32 17.66 32 18 32 C18 33.65 18 35.3 18 37 C15.03 37.495 15.03 37.495 12 38 C12.99 37.505 12.99 37.505 14 37 C13.855625 36.40832031 13.71125 35.81664062 13.5625 35.20703125 C12.59177306 31.07470059 11.72406298 27.2770238 12 23 C11.34 23 10.68 23 10 23 C9.34 20.36 8.68 17.72 8 15 C7.34 15 6.68 15 6 15 C5.17988688 13.44148245 4.36923787 11.87798284 3.5625 10.3125 C3.11003906 9.44238281 2.65757813 8.57226562 2.19140625 7.67578125 C1.04008072 5.09001736 0.43679247 2.78643472 0 0 Z " fill="#984466" transform="translate(58,56)"/>
<path d="M0 0 C1.12591553 0.00523682 2.25183105 0.01047363 3.41186523 0.01586914 C4.62680664 0.0190918 5.84174805 0.02231445 7.09350586 0.02563477 C8.37290039 0.03401367 9.65229492 0.04239258 10.97045898 0.05102539 C12.2537207 0.05553711 13.53698242 0.06004883 14.85913086 0.06469727 C18.04211921 0.07652994 21.22501661 0.09301471 24.40795898 0.11352539 C24.90295898 1.10352539 24.90295898 1.10352539 25.40795898 2.11352539 C24.83875732 2.09781494 24.26955566 2.08210449 23.68310547 2.06591797 C21.07066024 2.003041 18.45837488 1.96437007 15.84545898 1.92602539 C14.95020508 1.90088867 14.05495117 1.87575195 13.13256836 1.84985352 C7.34758522 1.78628227 3.57302338 2.52453686 -1.59204102 5.11352539 C-3.06535874 5.55042356 -4.54395376 5.9703643 -6.02954102 6.36352539 C-11.26577353 8.02796356 -14.75119811 11.29361351 -18.59204102 15.11352539 C-19.25204102 14.78352539 -19.91204102 14.45352539 -20.59204102 14.11352539 C-17.60659711 7.67487217 -15.27217987 3.85715385 -8.59204102 1.11352539 C-5.71704102 0.92602539 -5.71704102 0.92602539 -3.59204102 1.11352539 C-2.59204102 0.11352539 -2.59204102 0.11352539 0 0 Z " fill="#A0C28E" transform="translate(42.592041015625,4.886474609375)"/>
<path d="M0 0 C3.58129639 1.67127165 6.27906724 3.16076581 9 6 C9.86625 6.515625 10.7325 7.03125 11.625 7.5625 C14 9 14 9 15 11 C16.64991582 11.70710678 18.3207762 12.36562656 20 13 C25.71962617 15.57943925 25.71962617 15.57943925 28 19 C28.125 21.6875 28.125 21.6875 28 24 C25.69 23.67 23.38 23.34 21 23 C20.773125 22.236875 20.54625 21.47375 20.3125 20.6875 C18.66970782 17.32368745 17.21511874 16.88713491 14 15 C11.9379232 13.05697093 9.97517182 11.03485478 8.00390625 9 C6.24036442 7.23989588 4.44840166 5.67266657 2.5 4.125 C1.675 3.42375 0.85 2.7225 0 2 C0 1.34 0 0.68 0 0 Z " fill="#5471A8" transform="translate(56,52)"/>
<path d="M0 0 C0.66 0.33 1.32 0.66 2 1 C1.01 1.33 0.02 1.66 -1 2 C-1.14961182 2.63341309 -1.29922363 3.26682617 -1.45336914 3.91943359 C-2 6 -2 6 -3.64233398 7.24853516 C-4.68369507 7.76359619 -4.68369507 7.76359619 -5.74609375 8.2890625 C-6.50083984 8.67320313 -7.25558594 9.05734375 -8.03320312 9.453125 C-8.82662109 9.83984375 -9.62003906 10.2265625 -10.4375 10.625 C-12.00025723 11.40574076 -13.56152755 12.18946686 -15.12109375 12.9765625 C-16.16414673 13.48823975 -16.16414673 13.48823975 -17.22827148 14.01025391 C-19.1723713 14.99072987 -19.1723713 14.99072987 -21 17 C-21.99 17 -22.98 17 -24 17 C-24 16.34 -24 15.68 -24 15 C-23.01 14.67 -22.02 14.34 -21 14 C-20.34 13.01 -19.68 12.02 -19 11 C-17.046875 10.0078125 -17.046875 10.0078125 -14.75 9.125 C-10.3958659 7.30786538 -7.5190652 5.10987157 -4 2 C-1.75 0.625 -1.75 0.625 0 0 Z M-39 3 C-38.01 3.495 -38.01 3.495 -37 4 C-37 5.98 -37 7.96 -37 10 C-36.34 10.33 -35.68 10.66 -35 11 C-34.67 11.66 -34.34 12.32 -34 13 C-34.33 13.66 -34.66 14.32 -35 15 C-34.01 15.33 -33.02 15.66 -32 16 C-32.33 17.32 -32.66 18.64 -33 20 C-31.02 20 -29.04 20 -27 20 C-28.32 21.65 -29.64 23.3 -31 25 C-35.76359826 18.25941432 -39 11.37084509 -39 3 Z " fill="#FEB201" transform="translate(50,54)"/>
<path d="M0 0 C0.66 0.33 1.32 0.66 2 1 C1.37755401 2.27208622 0.75193233 3.54261882 0.125 4.8125 C-0.22304688 5.52019531 -0.57109375 6.22789063 -0.9296875 6.95703125 C-2 9 -2 9 -4 12 C-4.66 12 -5.32 12 -6 12 C-6.27714844 12.556875 -6.55429687 13.11375 -6.83984375 13.6875 C-7.61966564 15.24189245 -8.42496564 16.78373725 -9.25390625 18.3125 C-13.94173754 27.94004605 -13.8854072 37.45746222 -14 48 C-14.33 48 -14.66 48 -15 48 C-15.05859857 44.64590806 -15.09379582 41.29194983 -15.125 37.9375 C-15.14175781 36.99455078 -15.15851562 36.05160156 -15.17578125 35.08007812 C-15.21391399 29.60802984 -14.77420162 25.17586637 -13 20 C-12.7525 18.865625 -12.505 17.73125 -12.25 16.5625 C-9.89348153 9.84642236 -5.11788833 4.81683607 0 0 Z " fill="#B0B7A6" transform="translate(24,12)"/>
<path d="M0 0 C1 2 1 2 0.375 4.0625 C-1 7 -1 7 -2.1796875 8.94140625 C-5.33257774 14.15580165 -6.79117529 18.67525632 -7.640625 24.71484375 C-8 27 -8 27 -9 29 C-9.43002844 35.12040477 -9.11707563 40.21332661 -7 46 C-7.375 48.375 -7.375 48.375 -8 50 C-11.27057264 43.80771579 -11.57655578 38.31369023 -11.5625 31.375 C-11.5629834 30.31063721 -11.5634668 29.24627441 -11.56396484 28.1496582 C-11.34937116 18.03056238 -8.6002511 11.40037665 -3 3 C-2.34 3 -1.68 3 -1 3 C-0.67 2.01 -0.34 1.02 0 0 Z " fill="#ABE925" transform="translate(21,21)"/>
<path d="M0 0 C0.91740967 0.00322266 1.83481934 0.00644531 2.7800293 0.00976562 C9.62189695 0.15042254 15.49956706 1.22415813 21.625 4.4375 C20.965 5.0975 20.305 5.7575 19.625 6.4375 C13.04807692 5.86057692 13.04807692 5.86057692 11.625 4.4375 C9.64916172 4.33764358 7.66976522 4.30669206 5.69140625 4.3046875 C4.48548828 4.30339844 3.27957031 4.30210938 2.03710938 4.30078125 C0.76673828 4.30464844 -0.50363281 4.30851563 -1.8125 4.3125 C-3.71225586 4.30669922 -3.71225586 4.30669922 -5.65039062 4.30078125 C-6.85759766 4.30207031 -8.06480469 4.30335937 -9.30859375 4.3046875 C-10.42290771 4.30581543 -11.53722168 4.30694336 -12.68530273 4.30810547 C-15.34582739 4.25469784 -15.34582739 4.25469784 -17.375 5.4375 C-18.035 4.7775 -18.695 4.1175 -19.375 3.4375 C-12.8240556 0.82011354 -7.03382759 -0.07710417 0 0 Z " fill="#B0B5B1" transform="translate(55.375,1.5625)"/>
<path d="M0 0 C0.66 0.66 1.32 1.32 2 2 C-6.22994753 9.21159544 -15.80660204 14.79648367 -27 15 C-27.99 14.34 -28.98 13.68 -30 13 C-28.02 13 -26.04 13 -24 13 C-24 12.34 -24 11.68 -24 11 C-22.7625 10.87625 -21.525 10.7525 -20.25 10.625 C-15.48771645 10.00565205 -13.05985909 9.11714877 -9.6875 5.5625 C-6.53859315 2.56005394 -4.03807624 1.50438135 0 0 Z " fill="#B6B2B5" transform="translate(88,86)"/>
<path d="M0 0 C2.27883174 0.92926424 4.44244384 1.89908036 6.5859375 3.10546875 C6.5859375 3.76546875 6.5859375 4.42546875 6.5859375 5.10546875 C7.9059375 5.10546875 9.2259375 5.10546875 10.5859375 5.10546875 C10.5859375 5.76546875 10.5859375 6.42546875 10.5859375 7.10546875 C11.5759375 7.43546875 12.5659375 7.76546875 13.5859375 8.10546875 C12.9259375 8.43546875 12.2659375 8.76546875 11.5859375 9.10546875 C9.640625 8.328125 9.640625 8.328125 7.4609375 7.16796875 C6.73648438 6.78769531 6.01203125 6.40742188 5.265625 6.015625 C4.71132812 5.71527344 4.15703125 5.41492188 3.5859375 5.10546875 C2.9259375 5.76546875 2.2659375 6.42546875 1.5859375 7.10546875 C0.5959375 7.10546875 -0.3940625 7.10546875 -1.4140625 7.10546875 C-1.4140625 5.10546875 -1.4140625 5.10546875 0.5859375 3.10546875 C-0.4040625 3.10546875 -1.3940625 3.10546875 -2.4140625 3.10546875 C-2.7440625 3.76546875 -3.0740625 4.42546875 -3.4140625 5.10546875 C-4.0740625 5.10546875 -4.7340625 5.10546875 -5.4140625 5.10546875 C-5.4140625 4.44546875 -5.4140625 3.78546875 -5.4140625 3.10546875 C-10.21257614 1.14719683 -14.21324164 0.98862564 -19.2890625 1.48046875 C-19.97742187 1.5371875 -20.66578125 1.59390625 -21.375 1.65234375 C-23.05563939 1.79239703 -24.73502255 1.9473912 -26.4140625 2.10546875 C-19.22457376 -2.68752374 -8.26843532 -2.16644358 0 0 Z " fill="#40EC38" transform="translate(69.4140625,6.89453125)"/>
<path d="M0 0 C1.5 1.375 1.5 1.375 3 3 C3 3.66 3 4.32 3 5 C3.66 5 4.32 5 5 5 C6.76462683 8.08809695 7 9.23312136 7 13 C7.66 13 8.32 13 9 13 C9.33820166 14.5823006 9.67035939 16.16589375 10 17.75 C10.185625 18.63171875 10.37125 19.5134375 10.5625 20.421875 C11 23 11 23 11 27 C10.34 27 9.68 27 9 27 C9 27.66 9 28.32 9 29 C8.34 29 7.68 29 7 29 C7 28.01 7 27.02 7 26 C7.66 26 8.32 26 9 26 C8.34 24.02 7.68 22.04 7 20 C6.34 20 5.68 20 5 20 C4.80664062 19.10796875 4.61328125 18.2159375 4.4140625 17.296875 C4.15367188 16.12640625 3.89328125 14.9559375 3.625 13.75 C3.36976562 12.58984375 3.11453125 11.4296875 2.8515625 10.234375 C2.13650571 7.51847122 1.25738467 5.47103423 0 3 C0 2.01 0 1.02 0 0 Z " fill="#B1334D" transform="translate(61,66)"/>
<path d="M0 0 C-0.33 0.66 -0.66 1.32 -1 2 C2.63 2.99 6.26 3.98 10 5 C10 5.99 10 6.98 10 8 C9.29488281 7.855625 8.58976562 7.71125 7.86328125 7.5625 C-2.73142826 5.48113824 -13.23791369 4.52497982 -24 4 C-24 3.67 -24 3.34 -24 3 C-20.93852743 2.49357075 -17.87567701 1.99600678 -14.8125 1.5 C-13.94818359 1.35691406 -13.08386719 1.21382812 -12.19335938 1.06640625 C-8.09473423 0.40685738 -4.16773976 -0.20709266 0 0 Z " fill="#01BBCF" transform="translate(81,48)"/>
<path d="M0 0 C2.31 0.33 4.62 0.66 7 1 C7 1.66 7 2.32 7 3 C9.475 3.99 9.475 3.99 12 5 C12.33 4.67 12.66 4.34 13 4 C14.66617115 3.95936168 16.33388095 3.957279 18 4 C18 5.32 18 6.64 18 8 C18.66 8 19.32 8 20 8 C20 8.66 20 9.32 20 10 C22.43929746 8.07423885 24.80090595 6.19909405 27 4 C26.7342546 7.89759919 26.43693229 9.56306771 23.625 12.375 C21 14 21 14 18 14 C17.67 12.02 17.34 10.04 17 8 C15.02 8 13.04 8 11 8 C10.67 7.01 10.34 6.02 10 5 C7.93241371 4.04998712 7.93241371 4.04998712 5.5 3.4375 C3.03125 2.74609375 3.03125 2.74609375 1 2 C0.67 1.34 0.34 0.68 0 0 Z " fill="#1C97E3" transform="translate(72,60)"/>
<path d="M0 0 C0.33 0.66 0.66 1.32 1 2 C0.30020142 3.69951084 -0.40843738 5.39630489 -1.17578125 7.06640625 C-2.15259666 9.23883209 -2.15259666 9.23883209 -3 12.625 C-3.96479894 15.88119643 -5.23466036 18.13132309 -7 21 C-7.28875 21.928125 -7.5775 22.85625 -7.875 23.8125 C-9.31370861 27.88884106 -11.3086373 31.60129198 -14 35 C-14.66 35 -15.32 35 -16 35 C-16.75 33.3125 -16.75 33.3125 -17 31 C-15.21482174 28.35301155 -13.87978754 26.43989377 -11 25 C-10.31974363 23.00458132 -9.65509503 21.00382009 -9 19 C-8.525625 18.23558594 -8.05125 17.47117187 -7.5625 16.68359375 C-5.87165738 13.77957156 -4.92182811 11.02053292 -3.9375 7.8125 C-2.22064057 2.22064057 -2.22064057 2.22064057 0 0 Z " fill="#FD4502" transform="translate(53,58)"/>
<path d="M0 0 C2.125 0.25 2.125 0.25 4 1 C6.18703385 0.62092718 6.18703385 0.62092718 8 0 C7 3 7 3 3.5625 4.9375 C-9.40516409 11 -9.40516409 11 -14 11 C-14 11.99 -14 12.98 -14 14 C-15.98 14.33 -17.96 14.66 -20 15 C-20 14.34 -20 13.68 -20 13 C-19.05898438 12.48050781 -18.11796875 11.96101563 -17.1484375 11.42578125 C-15.89044274 10.72167971 -14.63264048 10.01723415 -13.375 9.3125 C-12.75753906 8.97283203 -12.14007813 8.63316406 -11.50390625 8.28320312 C-8.30449117 6.48142727 -5.44963211 4.62539203 -2.671875 2.21484375 C-1.34929687 1.11849609 -1.34929687 1.11849609 0 0 Z " fill="#03DC7C" transform="translate(76,37)"/>
<path d="M0 0 C0.33 0 0.66 0 1 0 C1.07347656 1.15628906 1.07347656 1.15628906 1.1484375 2.3359375 C1.22320312 3.33882812 1.29796875 4.34171875 1.375 5.375 C1.44460937 6.37273438 1.51421875 7.37046875 1.5859375 8.3984375 C1.76363964 11.15508879 1.76363964 11.15508879 4 13 C3.64638402 17.5970078 2.58012426 21.68099369 1 26 C0.34 25.67 -0.32 25.34 -1 25 C-1.33 25.66 -1.66 26.32 -2 27 C-2.66 27 -3.32 27 -4 27 C-3.79503906 26.14019531 -3.59007813 25.28039062 -3.37890625 24.39453125 C-1.51736318 16.22689968 -0.40369041 8.38005618 0 0 Z " fill="#96BAC1" transform="translate(101,45)"/>
<path d="M0 0 C2.38719462 2.38719462 2.40565109 3.37583882 2.8515625 6.65625 C2.98046875 7.59726562 3.109375 8.53828125 3.2421875 9.5078125 C3.36851563 10.49523437 3.49484375 11.48265625 3.625 12.5 C3.7590625 13.45648438 3.893125 14.41296875 4.03125 15.3984375 C5.72240677 28.13388334 5.72240677 28.13388334 5 34 C4.34 34.66 3.68 35.32 3 36 C2.94465088 35.34402832 2.88930176 34.68805664 2.83227539 34.01220703 C2.57990601 31.04942727 2.32128185 28.08722626 2.0625 25.125 C1.97548828 24.09246094 1.88847656 23.05992188 1.79882812 21.99609375 C1.71181641 21.00996094 1.62480469 20.02382812 1.53515625 19.0078125 C1.456604 18.09660645 1.37805176 17.18540039 1.29711914 16.24658203 C1.12004581 13.968356 1.12004581 13.968356 0 12 C-0.07065617 9.95944995 -0.08421976 7.91665743 -0.0625 5.875 C-0.05347656 4.77929688 -0.04445312 3.68359375 -0.03515625 2.5546875 C-0.02355469 1.71164063 -0.01195312 0.86859375 0 0 Z " fill="#EC0C11" transform="translate(55,56)"/>
<path d="M0 0 C0.66 0.33 1.32 0.66 2 1 C2 1.66 2 2.32 2 3 C-1.99795892 3.95619733 -5.70803922 4.1039592 -9.8125 4.0625 C-10.97394531 4.05347656 -12.13539062 4.04445313 -13.33203125 4.03515625 C-14.21246094 4.02355469 -15.09289063 4.01195312 -16 4 C-15.67 3.34 -15.34 2.68 -15 2 C-14.34 2 -13.68 2 -13 2 C-12.67 1.01 -12.34 0.02 -12 -1 C-11.01 -0.34 -10.02 0.32 -9 1 C-9 0.34 -9 -0.32 -9 -1 C-5.20720018 -2.26426661 -3.65934648 -1.40145184 0 0 Z " fill="#D2EC08" transform="translate(53,49)"/>
<path d="M0 0 C1.98 0 3.96 0 6 0 C6.66 1.32 7.32 2.64 8 4 C7.54625 4.4125 7.0925 4.825 6.625 5.25 C4.94049626 7.06408095 4.00734029 8.75285627 3 11 C2.34 11 1.68 11 1 11 C0.67 11.66 0.34 12.32 0 13 C0 8.71 0 4.42 0 0 Z " fill="#0FFD26" transform="translate(56,37)"/>
<path d="M0 0 C0.66 0.33 1.32 0.66 2 1 C1.67 1.94875 1.34 2.8975 1 3.875 C-0.10159191 6.77062452 -0.10159191 6.77062452 0 9 C1.134375 9.12375 2.26875 9.2475 3.4375 9.375 C4.613125 9.58125 5.78875 9.7875 7 10 C7.33 10.66 7.66 11.32 8 12 C0.13575423 10.85841594 -4.7755764 7.85998837 -11 3 C-10.34 2.67 -9.68 2.34 -9 2 C-8.34 2.33 -7.68 2.66 -7 3 C-6.67 2.34 -6.34 1.68 -6 1 C-6 1.66 -6 2.32 -6 3 C-3.13275314 2.42655063 -2.1385485 2.1385485 0 0 Z " fill="#EE5D18" transform="translate(37,84)"/>
<path d="M0 0 C0.43570313 0.37511719 0.87140625 0.75023437 1.3203125 1.13671875 C1.91585937 1.64847656 2.51140625 2.16023438 3.125 2.6875 C3.76050781 3.23921875 4.39601563 3.7909375 5.05078125 4.359375 C6.24657697 5.36585636 7.46889129 6.34293629 8.73046875 7.265625 C13.05348001 10.46785556 14.00315041 12.91606708 15 18 C14.34 18 13.68 18 13 18 C12.34 17.34 11.68 16.68 11 16 C10.34 15.67 9.68 15.34 9 15 C9 14.01 9 13.02 9 12 C8.34 12 7.68 12 7 12 C5.52734375 10.13671875 5.52734375 10.13671875 3.9375 7.6875 C3.41027344 6.88699219 2.88304687 6.08648437 2.33984375 5.26171875 C1 3 1 3 0 0 Z " fill="#725D8B" transform="translate(61,58)"/>
<path d="M0 0 C4.875 1.75 4.875 1.75 6 4 C7.64991582 4.70710678 9.3207762 5.36562656 11 6 C16.71962617 8.57943925 16.71962617 8.57943925 19 12 C19.125 14.6875 19.125 14.6875 19 17 C18.34 16.67 17.68 16.34 17 16 C16.87882812 15.35675781 16.75765625 14.71351562 16.6328125 14.05078125 C16.20955405 11.84252263 16.20955405 11.84252263 14.1796875 10.98046875 C13.41914062 10.71878906 12.65859375 10.45710938 11.875 10.1875 C6.81104436 8.16191774 3.43351167 5.2063278 0 1 C0 0.67 0 0.34 0 0 Z " fill="#467BB8" transform="translate(65,59)"/>
<path d="M0 0 C2.7824349 1.39121745 3.55210065 3.30164212 5 6 C5 8 5 8 3.4375 9.6875 C0.02821993 11.52326619 -2.30221767 10.78222319 -6 10 C-4.84826645 7.53199953 -3.95216435 5.95216435 -2 4 C-1.01 4 -0.02 4 1 4 C0.67 2.68 0.34 1.36 0 0 Z " fill="#09E367" transform="translate(90,22)"/>
<path d="M0 0 C0 0.99 0 1.98 0 3 C-3.90028225 5.60018816 -7.47434569 5.15085514 -12 5 C-12 5.66 -12 6.32 -12 7 C-14.10388569 7.05402274 -16.20816714 7.09280256 -18.3125 7.125 C-20.07013672 7.15980469 -20.07013672 7.15980469 -21.86328125 7.1953125 C-25 7 -25 7 -28 5 C-26.60201172 4.96132812 -26.60201172 4.96132812 -25.17578125 4.921875 C-16.13165823 4.51950755 -8.56676914 3.10599556 0 0 Z " fill="#D39A99" transform="translate(76,92)"/>
<path d="M0 0 C23.87029313 -0.64417583 23.87029313 -0.64417583 28.86328125 3.57421875 C29.23839844 4.04472656 29.61351563 4.51523437 30 5 C29.09121094 4.87882812 28.18242188 4.75765625 27.24609375 4.6328125 C25.98925781 4.46523438 24.73242188 4.29765625 23.4375 4.125 C22.0703125 3.94270833 20.703125 3.76041667 19.3359375 3.578125 C18.6253418 3.48337891 17.91474609 3.38863281 17.18261719 3.29101562 C11.87255859 2.58300781 11.87255859 2.58300781 6.5625 1.875 C5.30566406 1.70742188 4.04882812 1.53984375 2.75390625 1.3671875 C1.84511719 1.24601562 0.93632813 1.12484375 0 1 C0 0.67 0 0.34 0 0 Z " fill="#01B6DE" transform="translate(59,52)"/>
<path d="M0 0 C0.99 0.33 1.98 0.66 3 1 C3 2.32 3 3.64 3 5 C3.66 5 4.32 5 5 5 C5 9.62 5 14.24 5 19 C0.08456906 12.44609208 -0.27911231 7.98571335 0 0 Z " fill="#5DF31A" transform="translate(51,33)"/>
<path d="M0 0 C3.3989732 3.2990034 6.52978744 6.71936769 9.5703125 10.3515625 C10.98125352 11.9783852 12.45964664 13.49610471 14 15 C8.25 15.125 8.25 15.125 6 14 C5.71125 12.88625 5.4225 11.7725 5.125 10.625 C3.90230086 6.68519165 3.193261 6.2352827 0 4 C0 2.68 0 1.36 0 0 Z " fill="#BEAC9E" transform="translate(16,75)"/>
<path d="M0 0 C0.66 0.33 1.32 0.66 2 1 C-2.99632983 6.26103605 -7.69371586 8.59613505 -15 9 C-16.33961308 8.69287514 -17.67448679 8.36318538 -19 8 C-17.79601563 7.50628906 -16.59203125 7.01257812 -15.3515625 6.50390625 C-13.77602532 5.85681062 -12.20050538 5.20967303 -10.625 4.5625 C-9.43390625 4.07426758 -9.43390625 4.07426758 -8.21875 3.57617188 C-7.45820312 3.26357422 -6.69765625 2.95097656 -5.9140625 2.62890625 C-5.2123291 2.34088135 -4.5105957 2.05285645 -3.78759766 1.75610352 C-2.50590041 1.21398164 -1.24471489 0.62235745 0 0 Z " fill="#01D58F" transform="translate(81,40)"/>
<path d="M0 0 C0.99 0 1.98 0 3 0 C2.60887054 3.28548746 2.18434836 5.68507156 0.5 8.5625 C-1.51971196 13.19100658 -1.56271745 17.37656764 -1.6875 22.375 C-1.72166016 23.30183594 -1.75582031 24.22867188 -1.79101562 25.18359375 C-1.87299552 27.45560812 -1.94230494 29.72726104 -2 32 C-2.33 32 -2.66 32 -3 32 C-3.05859857 28.64590806 -3.09379582 25.29194983 -3.125 21.9375 C-3.14175781 20.99455078 -3.15851562 20.05160156 -3.17578125 19.08007812 C-3.2138485 13.61742818 -2.79363579 9.16349696 -1 4 C-0.65864073 2.66869885 -0.32074044 1.33641852 0 0 Z " fill="#B2B88B" transform="translate(12,28)"/>
<path d="M0 0 C3.78786597 0.5260925 6.17152224 1.38103911 9 4 C9 4.66 9 5.32 9 6 C10.65 6 12.3 6 14 6 C14.33 7.32 14.66 8.64 15 10 C9.03347646 8.42986223 4.17090975 5.24970218 -1 2 C-0.67 1.34 -0.34 0.68 0 0 Z " fill="#B8B4B3" transform="translate(25,89)"/>
<path d="M0 0 C0.79994412 2.79764877 1.10243643 5.21248147 1.02734375 8.1171875 C1.01509766 8.88933594 1.00285156 9.66148438 0.99023438 10.45703125 C0.95524646 12.06129196 0.91622307 13.66547003 0.87304688 15.26953125 C0.80644356 19.97877732 1.31545258 23.53493455 3 28 C2.625 30.375 2.625 30.375 2 32 C-1.49309604 25.58373412 -1.38727868 19.82355053 -1.25 12.625 C-1.24484375 11.52027344 -1.2396875 10.41554688 -1.234375 9.27734375 C-1.15444488 1.15444488 -1.15444488 1.15444488 0 0 Z " fill="#CDDB45" transform="translate(11,39)"/>
<path d="M0 0 C4.7918287 0.58436935 8.61806654 2.00122333 13 4 C14.31103869 4.56589756 15.62349741 5.12851906 16.9375 5.6875 C17.948125 6.120625 18.95875 6.55375 20 7 C20 7.99 20 8.98 20 10 C18.68 9.67 17.36 9.34 16 9 C16 8.34 16 7.68 16 7 C14.948125 6.896875 13.89625 6.79375 12.8125 6.6875 C9.05701087 6.01028065 7.10981684 5.1012276 4 3 C2.67391178 2.31903578 1.34313399 1.64669414 0 1 C0 0.67 0 0.34 0 0 Z " fill="#0FA1EE" transform="translate(63,54)"/>
<path d="M0 0 C0.75 1.6875 0.75 1.6875 1 4 C-0.94547207 7.2175115 -2.10182081 8.73462887 -5.75 9.8125 C-6.4925 9.874375 -7.235 9.93625 -8 10 C-8.33 8.02 -8.66 6.04 -9 4 C-8.01 4 -7.02 4 -6 4 C-6 4.66 -6 5.32 -6 6 C-2.47618313 3.45395403 -2.47618313 3.45395403 0 0 Z " fill="#2291DC" transform="translate(98,64)"/>
<path d="M0 0 C0.99 0.495 0.99 0.495 2 1 C2 2.98 2 4.96 2 7 C2.66 7.33 3.32 7.66 4 8 C4.33 8.66 4.66 9.32 5 10 C4.67 10.66 4.34 11.32 4 12 C4.99 12.33 5.98 12.66 7 13 C6.67 14.32 6.34 15.64 6 17 C6.66 17 7.32 17 8 17 C8.33 18.65 8.66 20.3 9 22 C3.43309926 17.42718868 1.03453069 10.94302756 0.25 3.9375 C0.1675 2.638125 0.085 1.33875 0 0 Z " fill="#F2D41D" transform="translate(11,57)"/>
<path d="M0 0 C0.66 0 1.32 0 2 0 C2.33 1.98 2.66 3.96 3 6 C4.65 5.67 6.3 5.34 8 5 C8.33 4.01 8.66 3.02 9 2 C9.33 2.66 9.66 3.32 10 4 C7.8125 6.5625 7.8125 6.5625 5 9 C2.1875 8.8125 2.1875 8.8125 0 8 C-1.125 2.25 -1.125 2.25 0 0 Z " fill="#3A88C4" transform="translate(87,68)"/>
<path d="M0 0 C3.57630558 2.69721371 3.84264752 5.86934641 4.625 10.125 C4.74979736 10.79281494 4.87459473 11.46062988 5.00317383 12.14868164 C5.90273477 17.0858207 6.56166492 22.00298004 7 27 C6.67 27 6.34 27 6 27 C4.54815522 22.46298506 3.76490804 18.81938524 4 14 C3.34 14 2.68 14 2 14 C1.66179834 12.4176994 1.32964061 10.83410625 1 9.25 C0.814375 8.36828125 0.62875 7.4865625 0.4375 6.578125 C0 4 0 4 0 0 Z " fill="#CE202D" transform="translate(55,52)"/>
<path d="M0 0 C-5.16017278 2.98746845 -10.19834261 4.02541328 -16 5 C-15.67 4.01 -15.34 3.02 -15 2 C-14.34 2 -13.68 2 -13 2 C-13 1.34 -13 0.68 -13 0 C-11.58456585 -0.19658808 -10.16755969 -0.38187546 -8.75 -0.5625 C-7.96109375 -0.66691406 -7.1721875 -0.77132812 -6.359375 -0.87890625 C-3.99467126 -1.00027349 -2.2488963 -0.69633257 0 0 Z " fill="#FAE205" transform="translate(54,53)"/>
<path d="M0 0 C-0.99 1.485 -0.99 1.485 -2 3 C-4.24658203 3.43237305 -4.24658203 3.43237305 -7.0078125 3.51171875 C-8.48701172 3.56489258 -8.48701172 3.56489258 -9.99609375 3.61914062 C-11.02863281 3.64169922 -12.06117187 3.66425781 -13.125 3.6875 C-14.16527344 3.72166016 -15.20554687 3.75582031 -16.27734375 3.79101562 C-18.85145507 3.87367058 -21.42521829 3.94276155 -24 4 C-24 3.67 -24 3.34 -24 3 C-20.93852743 2.49357075 -17.87567701 1.99600678 -14.8125 1.5 C-13.94818359 1.35691406 -13.08386719 1.21382812 -12.19335938 1.06640625 C-8.09473423 0.40685738 -4.16773976 -0.20709266 0 0 Z " fill="#01C4B8" transform="translate(81,48)"/>
<path d="M0 0 C1.39682559 3.82239436 0.64083517 6.78791269 -0.25 10.6875 C-0.50265625 11.84636719 -0.7553125 13.00523438 -1.015625 14.19921875 C-1.34046875 15.12347656 -1.6653125 16.04773438 -2 17 C-2.99 17.33 -3.98 17.66 -5 18 C-4.51030705 11.38914524 -2.66557258 6.05022986 0 0 Z " fill="#B7B7B9" transform="translate(11,28)"/>
<path d="M0 0 C0.33 0 0.66 0 1 0 C1.20852314 6.40629424 1.1583195 11.92972642 -1 18 C-1.66 18 -2.32 18 -3 18 C-2.69112547 15.56199034 -2.37805338 13.12464633 -2.0625 10.6875 C-1.97548828 9.99720703 -1.88847656 9.30691406 -1.79882812 8.59570312 C-1.40789865 5.59857712 -0.9584996 2.87549881 0 0 Z " fill="#FE1A00" transform="translate(53,64)"/>
<path d="M0 0 C5.23905243 6.39839456 6.44859191 13.9253457 6 22 C4.1203117 19.18046755 3.61234176 17.82885955 3 14.625 C2.46108147 11.98173294 1.90130025 9.75873393 0.875 7.25 C-0.11786058 4.69692993 -0.1551809 2.71566581 0 0 Z " fill="#32C199" transform="translate(95,28)"/>
<path d="M0 0 C0.66 0 1.32 0 2 0 C2.33 0.99 2.66 1.98 3 3 C4.65 3 6.3 3 8 3 C6.38405168 5.04119788 4.7143618 7.04072937 3 9 C2.34 9 1.68 9 1 9 C-1.09230769 4.56923077 -1.09230769 4.56923077 -0.625 1.6875 C-0.41875 1.130625 -0.2125 0.57375 0 0 Z " fill="#7D5D82" transform="translate(80,80)"/>
<path d="M0 0 C2 3 2 3 3.4375 6.625 C3.953125 7.73875 4.46875 8.8525 5 10 C5.99 10.33 6.98 10.66 8 11 C8 12.65 8 14.3 8 16 C7.67 15.01 7.34 14.02 7 13 C6.34 12.67 5.68 12.34 5 12 C3 11 3 11 2 8 C0.59894424 6.57142881 0.59894424 6.57142881 -1.0625 5.3125 C-2.031875 4.549375 -3.00125 3.78625 -4 3 C-3.67 2.34 -3.34 1.68 -3 1 C-2.34 1.66 -1.68 2.32 -1 3 C-0.67 2.01 -0.34 1.02 0 0 Z " fill="#7EC696" transform="translate(89,15)"/>
<path d="M0 0 C7.01348165 2.73696845 11.90381686 8.21571636 15 15 C13.36114929 13.60014836 11.72321773 12.19920688 10.08984375 10.79296875 C8.65114965 9.55864988 7.20539344 8.33253049 5.75390625 7.11328125 C5.03074219 6.49839844 4.30757812 5.88351563 3.5625 5.25 C2.88316406 4.67765625 2.20382813 4.1053125 1.50390625 3.515625 C0 2 0 2 0 0 Z " fill="#5E6BA0" transform="translate(56,52)"/>
<path d="M0 0 C0.2475 0.556875 0.495 1.11375 0.75 1.6875 C1.99199765 4.15464798 1.99199765 4.15464798 4.125 6.625 C6 9 6 9 6 11 C4.68 11.33 3.36 11.66 2 12 C-0.05257931 8.55166676 -1.0632763 6.68338409 -0.6875 2.625 C-0.460625 1.75875 -0.23375 0.8925 0 0 Z " fill="#B8B2A3" transform="translate(10,64)"/>
<path d="M0 0 C2.5654594 2.5654594 2.54046087 4.47686668 3 8 C3.99 8 4.98 8 6 8 C6 9.65 6 11.3 6 13 C4.02 13.33 2.04 13.66 0 14 C0.66 13.67 1.32 13.34 2 13 C1.855625 12.39671875 1.71125 11.7934375 1.5625 11.171875 C1.376875 10.37265625 1.19125 9.5734375 1 8.75 C0.814375 7.96109375 0.62875 7.1721875 0.4375 6.359375 C0 4 0 4 0 0 Z " fill="#A23F5B" transform="translate(70,80)"/>
<path d="M0 0 C2.125 0.375 2.125 0.375 4 1 C0.44553742 4.13629051 -2.54657405 5.51552468 -7 7 C-7.99 8.485 -7.99 8.485 -9 10 C-9.66 9.67 -10.32 9.34 -11 9 C-10.4375 7.1875 -10.4375 7.1875 -9 5 C-6.69747517 3.93097061 -4.3627974 2.92824183 -2 2 C-1.34 1.34 -0.68 0.68 0 0 Z " fill="#FDC501" transform="translate(38,59)"/>
<path d="M0 0 C0 0.66 0 1.32 0 2 C-1.63466992 3.05149038 -3.30914758 4.04146159 -5 5 C-6.78108792 6.21425994 -8.55207776 7.44346828 -10.3125 8.6875 C-11.19550781 9.31011719 -12.07851562 9.93273438 -12.98828125 10.57421875 C-13.65214844 11.04472656 -14.31601563 11.51523437 -15 12 C-15.66 11.67 -16.32 11.34 -17 11 C-14.18837644 7.85098161 -11.3356873 5.93199441 -7.67578125 3.94921875 C-5.83540329 2.95548202 -5.83540329 2.95548202 -3.6875 1.25 C-2 0 -2 0 0 0 Z " fill="#00E85E" transform="translate(79,35)"/>
<path d="M0 0 C1.32 0 2.64 0 4 0 C2.515 6.435 2.515 6.435 1 13 C0.67 13 0.34 13 0 13 C0 8.71 0 4.42 0 0 Z " fill="#2AFC20" transform="translate(56,37)"/>
<path d="M0 0 C5.78461538 4.30769231 5.78461538 4.30769231 6.875 7.8125 C6.936875 8.8953125 6.936875 8.8953125 7 10 C5.109375 9.78515625 5.109375 9.78515625 3 9 C1.953125 6.93359375 1.953125 6.93359375 1.25 4.4375 C1.00765625 3.61121094 0.7653125 2.78492188 0.515625 1.93359375 C0.34546875 1.29550781 0.1753125 0.65742188 0 0 Z " fill="#B4B7B4" transform="translate(90,16)"/>
<path d="M0 0 C0.75 1.5625 0.75 1.5625 1 4 C-0.13084437 6.50286409 -1.52139516 8.67007722 -3 11 C-3.66 9.68 -4.32 8.36 -5 7 C-4.34 7 -3.68 7 -3 7 C-3 5.68 -3 4.36 -3 3 C-2.34 3 -1.68 3 -1 3 C-0.67 2.01 -0.34 1.02 0 0 Z " fill="#B3B5B5" transform="translate(100,69)"/>
<path d="M0 0 C2.9375 0.375 2.9375 0.375 6 1 C6.33 1.66 6.66 2.32 7 3 C9.30965848 4.05352843 11.6429774 5.05719096 14 6 C12 7 12 7 8.4375 6.1875 C5 5 5 5 4 3 C1.98330173 1.86649466 1.98330173 1.86649466 0 1 C0 0.67 0 0.34 0 0 Z " fill="#2394D7" transform="translate(57,52)"/>
<path d="M0 0 C3.12436746 2.08291164 3.5365026 2.61276477 4.75 5.9375 C5.14445312 6.97197266 5.14445312 6.97197266 5.546875 8.02734375 C6 10 6 10 5 13 C0.59225513 4.738041 0.59225513 4.738041 0 0 Z " fill="#9F405D" transform="translate(58,56)"/>
<path d="M0 0 C0.99 0.33 1.98 0.66 3 1 C-0.17320782 4.53586014 -2.16743695 6.58578031 -7 7 C-4.66666667 4.66666667 -2.33333333 2.33333333 0 0 Z " fill="#01E36E" transform="translate(76,37)"/>
<path d="M0 0 C0.33 0.66 0.66 1.32 1 2 C1.66 2 2.32 2 3 2 C3.66 3.65 4.32 5.3 5 7 C1.06326356 5.68775452 -1.22719294 4.08089673 -4 1 C-2.68 1.33 -1.36 1.66 0 2 C0 1.34 0 0.68 0 0 Z " fill="#EA771E" transform="translate(30,85)"/>
<path d="M0 0 C0.66 0 1.32 0 2 0 C2.17835515 4.54805635 1.99785435 7.8794254 0 12 C-0.33 12 -0.66 12 -1 12 C-1.08159574 7.83861737 -0.98248524 4.0527516 0 0 Z " fill="#CCEB17" transform="translate(12,38)"/>
<path d="M0 0 C0.33 1.32 0.66 2.64 1 4 C1.66 4 2.32 4 3 4 C3 6.64 3 9.28 3 12 C0.89366282 10.29171079 0.06198392 9.47851584 -0.29296875 6.73828125 C-0.25816406 5.93777344 -0.22335938 5.13726562 -0.1875 4.3125 C-0.16042969 3.50425781 -0.13335937 2.69601563 -0.10546875 1.86328125 C-0.07066406 1.24839844 -0.03585938 0.63351563 0 0 Z " fill="#49F81B" transform="translate(53,34)"/>
<path d="M0 0 C1.98 0.495 1.98 0.495 4 1 C3.75 3.375 3.75 3.375 3 6 C0.9375 7.3125 0.9375 7.3125 -1 8 C-0.67 5.36 -0.34 2.72 0 0 Z " fill="#02F932" transform="translate(80,15)"/>
<path d="M0 0 C3.37014328 2.20802491 5.16247623 4.41682865 7 8 C7 8.66 7 9.32 7 10 C5.109375 9.78515625 5.109375 9.78515625 3 9 C1.953125 6.93359375 1.953125 6.93359375 1.25 4.4375 C1.00765625 3.61121094 0.7653125 2.78492188 0.515625 1.93359375 C0.34546875 1.29550781 0.1753125 0.65742187 0 0 Z " fill="#8C4C71" transform="translate(61,60)"/>
<path d="M0 0 C0 0.99 0 1.98 0 3 C-3.13498292 4.85776765 -5.37471432 5.20140476 -9 5 C-9 4.34 -9 3.68 -9 3 C-6.03 2.01 -3.06 1.02 0 0 Z " fill="#C19CA0" transform="translate(76,92)"/>
<path d="M0 0 C2.93200474 2.85276137 5.64315404 5.65079784 8 9 C5.04709864 7.62901008 2.39580248 6.22467373 0 4 C0 2.68 0 1.36 0 0 Z " fill="#CFAD6C" transform="translate(16,75)"/>
<path d="M0 0 C-1.5967195 0.72496458 -3.20272608 1.42950397 -4.8125 2.125 C-5.70582031 2.51945313 -6.59914063 2.91390625 -7.51953125 3.3203125 C-8.33808594 3.54460938 -9.15664063 3.76890625 -10 4 C-10.99 3.34 -11.98 2.68 -13 2 C-11.5882217 1.46605821 -10.17029756 0.94834896 -8.75 0.4375 C-7.96109375 0.14746094 -7.1721875 -0.14257812 -6.359375 -0.44140625 C-3.80896548 -1.04522837 -2.44677771 -0.8473932 0 0 Z " fill="#BDBCC1" transform="translate(49,3)"/>
<path d="M0 0 C0.75 1.6875 0.75 1.6875 1 4 C-0.8125 6.75 -0.8125 6.75 -3 9 C-3.66 9 -4.32 9 -5 9 C-3.7508258 5.54074837 -2.32472205 2.85306797 0 0 Z " fill="#2B99D7" transform="translate(98,64)"/>
<path d="M0 0 C2.51699845 2.51699845 3.10964078 4.57554146 4 8 C3.625 10.375 3.625 10.375 3 12 C-0.42857143 4.71428571 -0.42857143 4.71428571 0 0 Z " fill="#CDC266" transform="translate(10,59)"/>
<path d="M0 0 C0 3.01490557 -0.51952735 4.86864114 -1.5 7.6875 C-1.91765625 8.89986328 -1.91765625 8.89986328 -2.34375 10.13671875 C-2.5603125 10.75160156 -2.776875 11.36648437 -3 12 C-3.66 12 -4.32 12 -5 12 C-4.54965877 10.37276701 -4.08944646 8.74826336 -3.625 7.125 C-3.36976562 6.22007813 -3.11453125 5.31515625 -2.8515625 4.3828125 C-2 2 -2 2 0 0 Z " fill="#B6DE40" transform="translate(17,26)"/>
<path d="M0 0 C1.32 0.66 2.64 1.32 4 2 C4 3.65 4 5.3 4 7 C2.35 5.68 0.7 4.36 -1 3 C-0.67 2.01 -0.34 1.02 0 0 Z " fill="#ADB6AE" transform="translate(85,12)"/>
<path d="M0 0 C2.31 0 4.62 0 7 0 C7.33 1.32 7.66 2.64 8 4 C2.25 2.25 2.25 2.25 0 0 Z " fill="#BBBABC" transform="translate(32,95)"/>
<path d="M0 0 C0.66 0.99 1.32 1.98 2 3 C1.01 4.485 1.01 4.485 0 6 C-0.33 5.67 -0.66 5.34 -1 5 C-1.33 5.66 -1.66 6.32 -2 7 C-2.66 7 -3.32 7 -4 7 C-3.67 5.68 -3.34 4.36 -3 3 C-2.34 3 -1.68 3 -1 3 C-0.67 2.01 -0.34 1.02 0 0 Z " fill="#A8B6C1" transform="translate(101,65)"/>
<path d="M0 0 C0.66 0.33 1.32 0.66 2 1 C1.375 2.875 1.375 2.875 0 5 C-3.125 6.25 -3.125 6.25 -6 7 C-4.02 4.69 -2.04 2.38 0 0 Z " fill="#BBB8BA" transform="translate(24,12)"/>
<path d="M0 0 C0.268125 0.61875 0.53625 1.2375 0.8125 1.875 C1.95556848 4.2995233 1.95556848 4.2995233 5 6 C0.44615385 6.36923077 0.44615385 6.36923077 -1.8125 4.5 C-2.204375 4.005 -2.59625 3.51 -3 3 C-2.01 2.01 -1.02 1.02 0 0 Z " fill="#F22F08" transform="translate(45,90)"/>
<path d="M0 0 C0.66 0 1.32 0 2 0 C2.33 0.99 2.66 1.98 3 3 C4.65 3 6.3 3 8 3 C7.01 3.99 6.02 4.98 5 6 C2.5 4.6875 2.5 4.6875 0 3 C0 2.01 0 1.02 0 0 Z " fill="#6F638B" transform="translate(80,80)"/>
</svg>
