<?xml version="1.0" encoding="UTF-8"?>
<!DOCTYPE svg PUBLIC "-//W3C//DTD SVG 1.1//EN" "http://www.w3.org/Graphics/SVG/1.1/DTD/svg11.dtd">
<svg xmlns="http://www.w3.org/2000/svg" version="1.1" width="83px" height="77px" style="shape-rendering:geometricPrecision; text-rendering:geometricPrecision; image-rendering:optimizeQuality; fill-rule:evenodd; clip-rule:evenodd" xmlns:xlink="http://www.w3.org/1999/xlink">
<g><path style="opacity:1" fill="#fdfdfd" d="M -0.5,-0.5 C 27.1667,-0.5 54.8333,-0.5 82.5,-0.5C 82.5,25.1667 82.5,50.8333 82.5,76.5C 54.8333,76.5 27.1667,76.5 -0.5,76.5C -0.5,50.8333 -0.5,25.1667 -0.5,-0.5 Z"/></g>
<g><path style="opacity:1" fill="#aebaad" d="M 68.5,27.5 C 68.5,32.8333 68.5,38.1667 68.5,43.5C 67.1329,51.3685 63.1329,57.5351 56.5,62C 39.6563,71.332 25.1563,68.4987 13,53.5C 4.02353,35.4801 7.52353,20.6468 23.5,9C 39.789,2.03257 53.6223,5.19924 65,18.5C 66.7411,21.3093 67.9078,24.3093 68.5,27.5 Z"/></g>
<g><path style="opacity:1" fill="#81fd9b" d="M 61.5,53.5 C 58.5198,56.1444 55.5198,58.811 52.5,61.5C 49.7847,63.123 46.7847,63.7896 43.5,63.5C 40.8333,63.5 38.1667,63.5 35.5,63.5C 32.0217,63.8158 28.6883,63.3158 25.5,62C 20.5811,57.5871 16.2478,52.7538 12.5,47.5C 12.3326,42.8257 11.9993,38.159 11.5,33.5C 11.3446,30.2317 12.0113,27.2317 13.5,24.5C 14.0569,20.4271 16.0569,17.4271 19.5,15.5C 23.0442,12.2683 27.0442,9.93499 31.5,8.5C 36.6803,7.18526 42.0136,7.18526 47.5,8.5C 51.7618,11.1283 56.0951,13.4617 60.5,15.5C 60.3505,16.552 60.5172,17.552 61,18.5C 69.4123,29.9936 69.5789,41.6602 61.5,53.5 Z"/></g>
<g><path style="opacity:1" fill="#9bcea4" d="M 31.5,8.5 C 27.0442,9.93499 23.0442,12.2683 19.5,15.5C 21.9462,10.759 25.9462,8.42562 31.5,8.5 Z"/></g>
<g><path style="opacity:1" fill="#c3b4c0" d="M 68.5,27.5 C 71.1667,32.8333 71.1667,38.1667 68.5,43.5C 68.5,38.1667 68.5,32.8333 68.5,27.5 Z"/></g>
<g><path style="opacity:1" fill="#98dfa8" d="M 13.5,24.5 C 12.0113,27.2317 11.3446,30.2317 11.5,33.5C 11.9993,38.159 12.3326,42.8257 12.5,47.5C 10.6832,40.7325 10.1832,33.7325 11,26.5C 11.7083,25.6195 12.5416,24.9528 13.5,24.5 Z"/></g>
<g><path style="opacity:1" fill="#9ecea7" d="M 61.5,53.5 C 59.7671,57.5649 56.7671,60.2316 52.5,61.5C 55.5198,58.811 58.5198,56.1444 61.5,53.5 Z"/></g>
<g><path style="opacity:1" fill="#96d1a4" d="M 35.5,63.5 C 38.1667,63.5 40.8333,63.5 43.5,63.5C 42.6661,64.7479 41.3328,65.4146 39.5,65.5C 37.6672,65.4146 36.3339,64.7479 35.5,63.5 Z"/></g>
</svg>
