<?xml version="1.0" encoding="UTF-8"?>
<!DOCTYPE svg PUBLIC "-//W3C//DTD SVG 1.1//EN" "http://www.w3.org/Graphics/SVG/1.1/DTD/svg11.dtd">
<svg xmlns="http://www.w3.org/2000/svg" version="1.1" width="83px" height="72px" style="shape-rendering:geometricPrecision; text-rendering:geometricPrecision; image-rendering:optimizeQuality; fill-rule:evenodd; clip-rule:evenodd" xmlns:xlink="http://www.w3.org/1999/xlink">
<g><path style="opacity:1" fill="#fdfefd" d="M -0.5,-0.5 C 27.1667,-0.5 54.8333,-0.5 82.5,-0.5C 82.5,23.5 82.5,47.5 82.5,71.5C 54.8333,71.5 27.1667,71.5 -0.5,71.5C -0.5,47.5 -0.5,23.5 -0.5,-0.5 Z"/></g>
<g><path style="opacity:1" fill="#b7b0b0" d="M 50.5,8.5 C 48.5,8.5 46.5,8.5 44.5,8.5C 39.1667,8.5 33.8333,8.5 28.5,8.5C 31.8646,6.96082 35.5313,6.29416 39.5,6.5C 43.4687,6.29416 47.1354,6.96082 50.5,8.5 Z"/></g>
<g><path style="opacity:1" fill="#d8b99d" d="M 27.5,8.5 C 27.8333,8.5 28.1667,8.5 28.5,8.5C 33.8333,8.5 39.1667,8.5 44.5,8.5C 44.5,8.83333 44.5,9.16667 44.5,9.5C 39.1563,9.33398 33.8229,9.50065 28.5,10C 26.8695,12.8047 24.5361,14.638 21.5,15.5C 23.4545,13.1741 25.4545,10.8408 27.5,8.5 Z"/></g>
<g><path style="opacity:1" fill="#c3b2a2" d="M 44.5,9.5 C 44.5,9.16667 44.5,8.83333 44.5,8.5C 46.5,8.5 48.5,8.5 50.5,8.5C 54.2607,9.5472 57.594,11.3805 60.5,14C 62.1412,15.129 63.1412,16.629 63.5,18.5C 60.911,18.539 58.911,17.539 57.5,15.5C 55.3263,13.9186 52.9929,12.4186 50.5,11C 48.5643,10.187 46.5643,9.68701 44.5,9.5 Z"/></g>
<g><path style="opacity:1" fill="#fdbd80" d="M 44.5,9.5 C 46.5643,9.68701 48.5643,10.187 50.5,11C 52.9929,12.4186 55.3263,13.9186 57.5,15.5C 57.8333,19.1667 59.8333,21.1667 63.5,21.5C 63.5,22.5 63.5,23.5 63.5,24.5C 64.6343,26.8395 65.6343,29.1728 66.5,31.5C 67.8333,36.8333 67.8333,42.1667 66.5,47.5C 64.8356,46.0512 64.0023,44.0512 64,41.5C 63.015,44.9602 62.8483,48.2935 63.5,51.5C 63.5,52.1667 63.5,52.8333 63.5,53.5C 60.8784,55.7819 58.2117,58.1152 55.5,60.5C 53.1701,62.2426 50.5034,63.5759 47.5,64.5C 43.2172,65.4922 38.8839,65.8256 34.5,65.5C 32.2627,64.551 29.9294,63.8844 27.5,63.5C 27.5,62.5 27.5,61.5 27.5,60.5C 24.757,59.6118 22.0904,58.4451 19.5,57C 18.6634,55.9887 18.33,54.8221 18.5,53.5C 17.5,53.5 16.5,53.5 15.5,53.5C 14.3567,50.7357 13.0234,48.069 11.5,45.5C 11.1805,40.6367 11.5139,35.97 12.5,31.5C 13.9215,28.7062 14.9215,25.7062 15.5,22.5C 16.7631,19.5676 18.7631,17.2343 21.5,15.5C 24.5361,14.638 26.8695,12.8047 28.5,10C 33.8229,9.50065 39.1563,9.33398 44.5,9.5 Z"/></g>
<g><path style="opacity:1" fill="#c0b2a5" d="M 27.5,8.5 C 25.4545,10.8408 23.4545,13.1741 21.5,15.5C 18.7631,17.2343 16.7631,19.5676 15.5,22.5C 12.925,24.8453 11.925,27.8453 12.5,31.5C 11.5139,35.97 11.1805,40.6367 11.5,45.5C 10.306,38.6493 10.306,31.6493 11.5,24.5C 14.5,16.8333 19.8333,11.5 27.5,8.5 Z"/></g>
<g><path style="opacity:1" fill="#eabc91" d="M 57.5,15.5 C 58.911,17.539 60.911,18.539 63.5,18.5C 63.5,19.5 63.5,20.5 63.5,21.5C 59.8333,21.1667 57.8333,19.1667 57.5,15.5 Z"/></g>
<g><path style="opacity:1" fill="#ecbf95" d="M 15.5,22.5 C 14.9215,25.7062 13.9215,28.7062 12.5,31.5C 11.925,27.8453 12.925,24.8453 15.5,22.5 Z"/></g>
<g><path style="opacity:1" fill="#e9bd95" d="M 63.5,24.5 C 64.4959,24.4142 65.3292,24.7476 66,25.5C 66.4955,27.4727 66.6621,29.4727 66.5,31.5C 65.6343,29.1728 64.6343,26.8395 63.5,24.5 Z"/></g>
<g><path style="opacity:1" fill="#b3b3b3" d="M 69.5,31.5 C 70.162,33.3035 70.4954,35.3035 70.5,37.5C 70.6575,40.8136 69.9908,43.8136 68.5,46.5C 68.1795,41.3054 68.5128,36.3054 69.5,31.5 Z"/></g>
<g><path style="opacity:1" fill="#edbf90" d="M 66.5,47.5 C 66.2624,49.4044 65.2624,50.7377 63.5,51.5C 62.8483,48.2935 63.015,44.9602 64,41.5C 64.0023,44.0512 64.8356,46.0512 66.5,47.5 Z"/></g>
<g><path style="opacity:1" fill="#d2b69c" d="M 63.5,53.5 C 62.0473,57.2256 59.3806,59.5589 55.5,60.5C 58.2117,58.1152 60.8784,55.7819 63.5,53.5 Z"/></g>
<g><path style="opacity:1" fill="#e3bb93" d="M 15.5,53.5 C 16.5,53.5 17.5,53.5 18.5,53.5C 18.33,54.8221 18.6634,55.9887 19.5,57C 22.0904,58.4451 24.757,59.6118 27.5,60.5C 27.5,61.5 27.5,62.5 27.5,63.5C 22.8682,60.6819 18.8682,57.3486 15.5,53.5 Z"/></g>
<g><path style="opacity:1" fill="#bab5b3" d="M 11.5,24.5 C 10.306,31.6493 10.306,38.6493 11.5,45.5C 13.0234,48.069 14.3567,50.7357 15.5,53.5C 18.8682,57.3486 22.8682,60.6819 27.5,63.5C 29.9294,63.8844 32.2627,64.551 34.5,65.5C 38.6344,66.4849 42.9677,66.8182 47.5,66.5C 30.0318,70.5154 17.5318,64.182 10,47.5C 7.65553,39.4937 8.15553,31.827 11.5,24.5 Z"/></g>
<g><path style="opacity:1" fill="#bdb3aa" d="M 63.5,18.5 C 67.3686,21.9074 69.3686,26.2407 69.5,31.5C 68.5128,36.3054 68.1795,41.3054 68.5,46.5C 65.3994,57.2674 58.3994,63.934 47.5,66.5C 42.9677,66.8182 38.6344,66.4849 34.5,65.5C 38.8839,65.8256 43.2172,65.4922 47.5,64.5C 50.5034,63.5759 53.1701,62.2426 55.5,60.5C 59.3806,59.5589 62.0473,57.2256 63.5,53.5C 63.5,52.8333 63.5,52.1667 63.5,51.5C 65.2624,50.7377 66.2624,49.4044 66.5,47.5C 67.8333,42.1667 67.8333,36.8333 66.5,31.5C 66.6621,29.4727 66.4955,27.4727 66,25.5C 65.3292,24.7476 64.4959,24.4142 63.5,24.5C 63.5,23.5 63.5,22.5 63.5,21.5C 63.5,20.5 63.5,19.5 63.5,18.5 Z"/></g>
</svg>
