<?xml version="1.0" encoding="UTF-8"?>
<svg version="1.1" xmlns="http://www.w3.org/2000/svg" width="77" height="73">
<path d="M0 0 C25.41 0 50.82 0 77 0 C77 24.09 77 48.18 77 73 C51.59 73 26.18 73 0 73 C0 48.91 0 24.82 0 0 Z " fill="#FC8081" transform="translate(0,0)"/>
<path d="M0 0 C25.41 0 50.82 0 77 0 C77 24.09 77 48.18 77 73 C51.59 73 26.18 73 0 73 C0 48.91 0 24.82 0 0 Z M13 18 C7.71592677 25.77864734 6.95175853 33.78650922 8 43 C10.50264487 51.87400713 15.30817564 58.83287309 23 64 C30.61206214 67.86300759 38.22283502 69.56519843 46.56640625 67.3046875 C55.18004983 64.17484449 62.57513361 59.17929847 67 51 C70.56279616 43.29976315 71.26464016 35.53011757 68.8125 27.375 C65.16292397 17.79486293 59.9608624 12.62310016 51.30078125 7.359375 C47.10418659 5.6310733 43.61522741 5.52127087 39.125 5.5625 C38.36058594 5.54251953 37.59617187 5.52253906 36.80859375 5.50195312 C26.93295929 5.51033652 19.42163348 10.7604018 13 18 Z " fill="#FDFDFD" transform="translate(0,0)"/>
<path d="M0 0 C0.79575439 0.00499512 1.59150879 0.00999023 2.41137695 0.01513672 C8.75099951 0.2036032 13.13512334 1.45444409 18.125 5.5 C18.75535156 5.93441406 19.38570312 6.36882813 20.03515625 6.81640625 C26.42781558 11.58036257 29.90947542 18.70345348 31.125 26.5 C32.0985063 35.85204412 29.95070539 44.38147156 24.0625 51.8125 C17.90242074 58.29258338 9.51485422 62.53227804 0.5625 62.8125 C-8.24145089 62.68283946 -15.73623651 59.57142494 -22.0859375 53.49609375 C-29.54865228 45.1697897 -31.38970235 38.31032427 -31.2734375 27.20703125 C-30.26772265 17.84993916 -25.30681562 11.10735592 -18.31640625 5.12109375 C-12.30809915 1.13157784 -7.04638761 -0.05794604 0 0 Z M-22.875 11.5 C-28.47742725 19.25720696 -29.82953196 27.13824419 -28.875 36.5 C-28.11038649 39.61558034 -27.12726578 42.54823066 -25.875 45.5 C-25.215 45.5 -24.555 45.5 -23.875 45.5 C-23.81828125 46.06332031 -23.7615625 46.62664063 -23.703125 47.20703125 C-22.49624045 50.54873517 -20.36464754 51.97160861 -17.625 54.1875 C-16.67109375 54.97511719 -15.7171875 55.76273438 -14.734375 56.57421875 C-8.41002425 60.8336517 0.20536631 60.19939865 7.54296875 59.15625 C11.30429738 58.30942179 14.37136286 57.25363714 17.125 54.5 C17.125 53.84 17.125 53.18 17.125 52.5 C17.785 52.5 18.445 52.5 19.125 52.5 C20.71326222 50.78502228 20.71326222 50.78502228 22.25 48.625 C22.78882813 47.90570313 23.32765625 47.18640625 23.8828125 46.4453125 C25.30439632 44.60373994 25.30439632 44.60373994 25.125 42.5 C25.785 42.5 26.445 42.5 27.125 42.5 C27.20649592 39.47861433 27.26573421 36.45946095 27.3125 33.4375 C27.33763672 32.58994141 27.36277344 31.74238281 27.38867188 30.86914062 C27.48321985 22.70649883 25.17988143 17.04161126 20.125 10.5 C17.82019712 8.80027975 17.82019712 8.80027975 15.125 7.5 C14.17625 6.778125 13.2275 6.05625 12.25 5.3125 C2.03292318 -0.46527925 -14.89992829 3.2757073 -22.875 11.5 Z " fill="#C3AEAC" transform="translate(38.875,5.5)"/>
<path d="M0 0 C0 0.66 0 1.32 0 2 C-1.11375 2.6496875 -1.11375 2.6496875 -2.25 3.3125 C-6.39257475 5.8545345 -9.26261461 9.45606898 -11 14 C-11.35543427 16.33006911 -11.6913753 18.66327016 -12 21 C-12.33 21.33 -12.66 21.66 -13 22 C-13.21122745 26.43577642 -12.70024812 30.62344926 -12 35 C-12.4640625 34.0409375 -12.4640625 34.0409375 -12.9375 33.0625 C-13.8345163 31.06389179 -13.8345163 31.06389179 -15 30 C-15.8430479 19.86721274 -14.3985121 12.04384378 -8 4 C-2.73684211 0 -2.73684211 0 0 0 Z " fill="#DE9393" transform="translate(25,12)"/>
<path d="M0 0 C5.22619945 0.409898 8.43495245 1.02751845 12 5 C12.98275473 7.67698294 13.48204776 10.17480599 14 13 C12.29115995 11.37660195 10.62553283 9.70680947 9 8 C9 7.34 9 6.68 9 6 C8.443125 5.938125 7.88625 5.87625 7.3125 5.8125 C4.05012827 4.66626128 2.31332126 2.50609803 0 0 Z " fill="#CBA4A2" transform="translate(50,10)"/>
<path d="M0 0 C1.99910293 0.99731533 3.99435092 1.99703563 5.97265625 3.03515625 C11.94123881 5.9692445 17.38701989 6.75278579 24 7 C24 7.33 24 7.66 24 8 C13.94940119 8.29273589 7.5334499 7.99534634 0 1 C0 0.67 0 0.34 0 0 Z " fill="#E28E91" transform="translate(20,57)"/>
<path d="M0 0 C0.33 0 0.66 0 1 0 C1.04254356 1.99954746 1.04080783 4.00041636 1 6 C0.67 6.33 0.34 6.66 0 7 C-0.21122745 11.43577642 0.29975188 15.62344926 1 20 C0.690625 19.360625 0.38125 18.72125 0.0625 18.0625 C-0.8345163 16.06389179 -0.8345163 16.06389179 -2 15 C-2.07244053 12.98035801 -2.08377188 10.95832876 -2.0625 8.9375 C-2.05347656 7.83277344 -2.04445313 6.72804688 -2.03515625 5.58984375 C-2.02355469 4.73519531 -2.01195312 3.88054688 -2 3 C-1.34 3 -0.68 3 0 3 C0 2.01 0 1.02 0 0 Z " fill="#E88C8E" transform="translate(12,27)"/>
<path d="M0 0 C6.93 0.495 6.93 0.495 14 1 C12 3 12 3 9.6171875 3.1953125 C8.71226563 3.17210938 7.80734375 3.14890625 6.875 3.125 C5.50988281 3.09792969 5.50988281 3.09792969 4.1171875 3.0703125 C3.41851562 3.04710938 2.71984375 3.02390625 2 3 C2 2.34 2 1.68 2 1 C1.34 0.67 0.68 0.34 0 0 Z " fill="#C7BBB7" transform="translate(32,65)"/>
<path d="M0 0 C0.33 0 0.66 0 1 0 C1.3125 2.8125 1.3125 2.8125 1 6 C-1.375 7.9375 -1.375 7.9375 -4 9 C-4.66 8.67 -5.32 8.34 -6 8 C-5.02471263 6.66382648 -4.04466681 5.3311249 -3.0625 4 C-2.24458984 2.88625 -2.24458984 2.88625 -1.41015625 1.75 C-0.94480469 1.1725 -0.47945312 0.595 0 0 Z " fill="#CCA2A3" transform="translate(64,48)"/>
<path d="M0 0 C0.99 0.495 0.99 0.495 2 1 C2.59355614 3.64860427 2.74209269 6.29197322 3 9 C3.66 9 4.32 9 5 9 C5.33 10.32 5.66 11.64 6 13 C4.078125 12.3515625 4.078125 12.3515625 2 11 C1.171875 8.3984375 1.171875 8.3984375 0.75 5.375 C0.60046875 4.37210938 0.4509375 3.36921875 0.296875 2.3359375 C0.19890625 1.56507812 0.1009375 0.79421875 0 0 Z " fill="#CBA3A1" transform="translate(10,42)"/>
</svg>
