<?xml version="1.0" encoding="UTF-8"?>
<svg version="1.1" xmlns="http://www.w3.org/2000/svg" width="82" height="77">
<path d="M0 0 C27.06 0 54.12 0 82 0 C82 25.41 82 50.82 82 77 C54.94 77 27.88 77 0 77 C0 51.59 0 26.18 0 0 Z " fill="#FDFDFD" transform="translate(0,0)"/>
<path d="M0 0 C7.86869872 4.76404208 13.17070303 10.98661688 15.9609375 19.78515625 C17.82121637 29.4550964 16.36333311 37.51422879 11.6875 46 C6.86454098 52.12646146 1.25801682 57.54205913 -6.625 58.9375 C-17.2112477 60.05064622 -25.67373067 59.36440222 -34.625 52.9375 C-41.35896032 46.98516008 -45.06181172 39.94301279 -45.78515625 30.9453125 C-46.17407533 21.17160688 -42.79329229 13.68472177 -36.375 6.375 C-26.54281759 -2.33988896 -12.36636136 -5.82958302 0 0 Z " fill="#FDFA82" transform="translate(56.625,10.0625)"/>
<path d="M0 0 C7.86869872 4.76404208 13.17070303 10.98661688 15.9609375 19.78515625 C17.82121637 29.4550964 16.36333311 37.51422879 11.6875 46 C6.86454098 52.12646146 1.25801682 57.54205913 -6.625 58.9375 C-17.2112477 60.05064622 -25.67373067 59.36440222 -34.625 52.9375 C-41.35896032 46.98516008 -45.06181172 39.94301279 -45.78515625 30.9453125 C-46.17407533 21.17160688 -42.79329229 13.68472177 -36.375 6.375 C-26.54281759 -2.33988896 -12.36636136 -5.82958302 0 0 Z M-38.2890625 11.953125 C-43.05280469 19.02909293 -43.49849989 25.5995465 -42.625 33.9375 C-40.68293697 42.16814808 -36.2699348 48.88299087 -29.18359375 53.54296875 C-22.16331311 57.19106218 -15.44084059 58.14813206 -7.625 56.9375 C2.28463616 53.63428795 8.36278314 46.87648549 13.375 37.9375 C14.375 35.02083333 14.375 35.02083333 14.375 31.9375 C14.4471875 31.19886719 14.519375 30.46023437 14.59375 29.69921875 C15.10760512 21.43899772 11.93289414 15.90664608 7.5625 9.125 C1.45167738 3.01417738 -5.66582517 -0.06082744 -14.25 -0.5625 C-24.04396871 -0.36783727 -32.34181059 4.23620301 -38.2890625 11.953125 Z " fill="#BBB8A4" transform="translate(56.625,10.0625)"/>
<path d="M0 0 C3.35985746 3.86516584 3.38765457 6.43728889 3.2265625 11.39453125 C2.82999457 15.95506243 2.3426841 20.34746573 -0.625 24 C-1.07875 24.33 -1.5325 24.66 -2 25 C-1.125 17.125 -1.125 17.125 0 16 C0.07319621 13.30345146 0.09242537 10.63308542 0.0625 7.9375 C0.05798828 7.17888672 0.05347656 6.42027344 0.04882812 5.63867188 C0.0370068 3.75908129 0.01907078 1.87953101 0 0 Z " fill="#F0ED9A" transform="translate(68,28)"/>
<path d="M0 0 C2 1 2 1 4 4 C5.1875 7.5625 5.1875 7.5625 6 11 C5.67 11.66 5.34 12.32 5 13 C4.15615325 11.58957044 3.32530504 10.17135868 2.5 8.75 C2.0359375 7.96109375 1.571875 7.1721875 1.09375 6.359375 C0 4 0 4 0 0 Z " fill="#F9F694" transform="translate(15,44)"/>
<path d="M0 0 C4.99911924 0.47610659 7.97832683 2.03162219 12 5 C11.01 5.495 11.01 5.495 10 6 C7.375 5.0625 7.375 5.0625 5 4 C5 3.34 5 2.68 5 2 C3.35 2 1.7 2 0 2 C0 1.34 0 0.68 0 0 Z " fill="#F4F498" transform="translate(48,11)"/>
</svg>
