<svg width="20" height="20" viewBox="0 0 20 20" fill="none" xmlns="http://www.w3.org/2000/svg">
<path d="M12 7.00012V3.00012C12 2.20447 11.6839 1.44141 11.1213 0.878802C10.5587 0.316193 9.79565 0.00012207 9 0.00012207L5 9.00012V20.0001H16.28C16.7623 20.0056 17.2304 19.8365 17.5979 19.5241C17.9654 19.2117 18.2077 18.777 18.28 18.3001L19.66 9.30012C19.7035 9.01348 19.6842 8.7208 19.6033 8.44237C19.5225 8.16394 19.3821 7.90642 19.1919 7.68764C19.0016 7.46886 18.7661 7.29405 18.5016 7.17534C18.2371 7.05663 17.9499 6.99684 17.66 7.00012H12ZM5 20.0001H2C1.46957 20.0001 0.960859 19.7894 0.585786 19.4143C0.210714 19.0393 0 18.5306 0 18.0001V11.0001C0 10.4697 0.210714 9.96098 0.585786 9.58591C0.960859 9.21084 1.46957 9.00012 2 9.00012H5" fill="#E06161"/>
</svg>
