<svg width="13" height="15" viewBox="0 0 14 13" fill="none" xmlns="http://www.w3.org/2000/svg">
<path d="M4.04837 5.89997L6.48707 0.5C6.97215 0.5 7.43737 0.689641 7.78038 1.0272C8.12339 1.36477 8.31609 1.8226 8.31609 2.29999V4.69997H11.7668C11.9436 4.698 12.1187 4.73388 12.2799 4.8051C12.4412 4.87633 12.5848 4.98121 12.7008 5.11248C12.8168 5.24375 12.9024 5.39826 12.9516 5.56532C13.0009 5.73238 13.0127 5.90798 12.9862 6.07996L12.1448 11.4799C12.1007 11.7661 11.9531 12.0269 11.729 12.2143C11.5049 12.4018 11.2196 12.5032 10.9255 12.4999H4.04837M4.04837 5.89997V12.4999M4.04837 5.89997H2.21935C1.89596 5.89997 1.58581 6.02639 1.35714 6.25144C1.12847 6.47648 1 6.7817 1 7.09996V11.2999C1 11.6182 1.12847 11.9234 1.35714 12.1485C1.58581 12.3735 1.89596 12.4999 2.21935 12.4999H4.04837" stroke="#5B5B5B" stroke-linecap="round" stroke-linejoin="round"/>
</svg>
