<svg width="351" height="68" viewBox="0 0 351 68" fill="none" xmlns="http://www.w3.org/2000/svg">
<g transform="translate(-21 -28)">
<rect x="21" y="28" width="351" height="68" rx="20" fill="white"/>
<path d="M182.66 55.436H185.014V55.7C185.014 56.6973 184.801 57.6213 184.376 58.472C183.965 59.3227 183.342 60.0487 182.506 60.65C181.67 61.2513 180.599 61.6913 179.294 61.97L178.106 59.704C179.162 59.4987 180.02 59.198 180.68 58.802C181.355 58.3913 181.853 57.9147 182.176 57.372C182.499 56.8293 182.66 56.272 182.66 55.7V55.436ZM183.232 55.436H185.586V55.7C185.586 56.2427 185.74 56.7633 186.048 57.262C186.371 57.746 186.862 58.1787 187.522 58.56C188.182 58.9267 189.018 59.2127 190.03 59.418L188.886 61.662C187.61 61.4127 186.554 61.002 185.718 60.43C184.882 59.858 184.259 59.1687 183.848 58.362C183.437 57.5407 183.232 56.6533 183.232 55.7V55.436ZM178.656 53.588H189.568V55.832H178.656V53.588ZM182.638 51.608H185.586V55.216H182.638V51.608ZM182.616 63.136H185.564V71.342H182.616V63.136ZM191.526 51.564H194.452V71.936H191.526V51.564ZM177.798 65.204L177.468 62.806C178.7 62.806 180.042 62.7987 181.494 62.784C182.946 62.7547 184.435 62.7033 185.96 62.63C187.485 62.542 188.959 62.41 190.382 62.234L190.558 64.346C189.091 64.5953 187.61 64.786 186.114 64.918C184.618 65.0353 183.159 65.116 181.736 65.16C180.328 65.1893 179.015 65.204 177.798 65.204ZM196.76 67.184H215.218V69.56H196.76V67.184ZM204.416 62.652H207.342V67.822H204.416V62.652ZM204.328 52.708H206.88V54.182C206.88 55.0473 206.756 55.8833 206.506 56.69C206.272 57.4967 205.912 58.2593 205.428 58.978C204.959 59.6967 204.38 60.3493 203.69 60.936C203.001 61.508 202.209 61.9993 201.314 62.41C200.434 62.8207 199.459 63.1213 198.388 63.312L197.178 60.87C198.117 60.7233 198.96 60.4887 199.708 60.166C200.456 59.8433 201.116 59.462 201.688 59.022C202.275 58.5673 202.759 58.076 203.14 57.548C203.536 57.0053 203.83 56.448 204.02 55.876C204.226 55.304 204.328 54.7393 204.328 54.182V52.708ZM204.878 52.708H207.452V54.182C207.452 54.754 207.548 55.326 207.738 55.898C207.944 56.47 208.237 57.02 208.618 57.548C209.014 58.076 209.498 58.5673 210.07 59.022C210.642 59.462 211.302 59.8433 212.05 60.166C212.813 60.4887 213.656 60.7233 214.58 60.87L213.37 63.312C212.3 63.1067 211.324 62.806 210.444 62.41C209.564 61.9993 208.78 61.508 208.09 60.936C207.401 60.364 206.814 59.726 206.33 59.022C205.861 58.3033 205.502 57.5407 205.252 56.734C205.003 55.9127 204.878 55.062 204.878 54.182V52.708Z" fill="#2251DD"/>
</g>
<defs>
<filter id="filter0_d_834_1158" x="-15" y="0" width="423" height="140" filterUnits="userSpaceOnUse" color-interpolation-filters="sRGB">
<feFlood flood-opacity="0" result="BackgroundImageFix"/>
<feColorMatrix in="SourceAlpha" type="matrix" values="0 0 0 0 0 0 0 0 0 0 0 0 0 0 0 0 0 0 127 0" result="hardAlpha"/>
<feOffset dy="8"/>
<feGaussianBlur stdDeviation="18"/>
<feComposite in2="hardAlpha" operator="out"/>
<feColorMatrix type="matrix" values="0 0 0 0 0 0 0 0 0 0 0 0 0 0 0 0 0 0 0.08 0"/>
<feBlend mode="normal" in2="BackgroundImageFix" result="effect1_dropShadow_834_1158"/>
<feBlend mode="normal" in="SourceGraphic" in2="effect1_dropShadow_834_1158" result="shape"/>
</filter>
</defs>
</svg>
