<svg width="85" height="91" viewBox="36 19 28 28" fill="none" xmlns="http://www.w3.org/2000/svg">
<g filter="url(#filter0_d_755_978)">
<rect x="36" y="19" width="28" height="28" rx="14" fill="white"/>
<path d="M46.6583 33.7835L52.35 37.1665M52.3417 27.8335L46.6583 31.2165M57 26.55C57 27.9583 55.8807 29.1 54.5 29.1C53.1193 29.1 52 27.9583 52 26.55C52 25.1417 53.1193 24 54.5 24C55.8807 24 57 25.1417 57 26.55ZM47 32.5C47 33.9083 45.8807 35.05 44.5 35.05C43.1193 35.05 42 33.9083 42 32.5C42 31.0917 43.1193 29.95 44.5 29.95C45.8807 29.95 47 31.0917 47 32.5ZM57 38.45C57 39.8583 55.8807 41 54.5 41C53.1193 41 52 39.8583 52 38.45C52 37.0417 53.1193 35.9 54.5 35.9C55.8807 35.9 57 37.0417 57 38.45Z" stroke="#898989" stroke-width="1.5" stroke-linecap="round" stroke-linejoin="round"/>
</g>
<defs>
<filter id="filter0_d_755_978" x="0" y="-9" width="100" height="100" filterUnits="userSpaceOnUse" color-interpolation-filters="sRGB">
<feFlood flood-opacity="0" result="BackgroundImageFix"/>
<feColorMatrix in="SourceAlpha" type="matrix" values="0 0 0 0 0 0 0 0 0 0 0 0 0 0 0 0 0 0 127 0" result="hardAlpha"/>
<feOffset dy="8"/>
<feGaussianBlur stdDeviation="18"/>
<feComposite in2="hardAlpha" operator="out"/>
<feColorMatrix type="matrix" values="0 0 0 0 0 0 0 0 0 0 0 0 0 0 0 0 0 0 0.08 0"/>
<feBlend mode="normal" in2="BackgroundImageFix" result="effect1_dropShadow_755_978"/>
<feBlend mode="normal" in="SourceGraphic" in2="effect1_dropShadow_755_978" result="shape"/>
</filter>
</defs>
</svg>
