<svg width="12" height="13" viewBox="0 0 12 13" fill="none" xmlns="http://www.w3.org/2000/svg">
<path d="M3.29434 5.94997L5.52981 1C5.97447 1 6.40093 1.17384 6.71535 1.48327C7.02977 1.7927 7.20642 2.21239 7.20642 2.64999V4.84998H10.3696C10.5316 4.84817 10.6921 4.88105 10.8399 4.94634C10.9878 5.01164 11.1194 5.10778 11.2257 5.22811C11.332 5.34843 11.4105 5.49007 11.4557 5.64321C11.5009 5.79634 11.5117 5.95731 11.4873 6.11497L10.7161 11.0649C10.6757 11.3272 10.5403 11.5663 10.3349 11.7381C10.1295 11.91 9.86793 12.0029 9.59837 11.9999H3.29434M3.29434 5.94997V11.9999M3.29434 5.94997H1.61774C1.32129 5.94997 1.03699 6.06586 0.827377 6.27215C0.617761 6.47844 0.5 6.75823 0.5 7.04996V10.8999C0.5 11.1917 0.617761 11.4715 0.827377 11.6777C1.03699 11.884 1.32129 11.9999 1.61774 11.9999H3.29434" stroke="#323232" stroke-linecap="round" stroke-linejoin="round"/>
</svg>
