<svg width="351" height="46" viewBox="0 0 351 46" fill="none" xmlns="http://www.w3.org/2000/svg">
<g opacity="0.7">
<rect width="351" height="46" rx="10" fill="black"/>
<path d="M32 22.0857V23.0057C31.9988 25.1621 31.3005 27.2604 30.0093 28.9875C28.7182 30.7147 26.9033 31.9782 24.8354 32.5896C22.7674 33.201 20.5573 33.1276 18.5345 32.3803C16.5117 31.633 14.7847 30.2518 13.611 28.4428C12.4373 26.6338 11.8798 24.4938 12.0217 22.342C12.1636 20.1903 12.9972 18.1421 14.3983 16.5028C15.7994 14.8635 17.6928 13.7211 19.7962 13.2459C21.8996 12.7706 24.1003 12.9881 26.07 13.8657M32 15.0057L22 25.0157L19 22.0157" stroke="white" stroke-width="1.5" stroke-linecap="round" stroke-linejoin="round"/>
<path d="M64.388 16.422H65.508V29.092H64.388V16.422ZM60.23 21.238H62.316V22.274H60.23V21.238ZM61.938 16.73H63.044V28.42H61.938V16.73ZM54.826 18.032H60.594V18.984H54.826V18.032ZM54.7 25.97L54.56 24.99C54.98 24.99 55.4513 24.99 55.974 24.99C56.4967 24.9807 57.0427 24.9667 57.612 24.948C58.1813 24.92 58.746 24.8873 59.306 24.85C59.866 24.8033 60.3887 24.7473 60.874 24.682L60.958 25.55C60.2953 25.6713 59.5813 25.7647 58.816 25.83C58.06 25.886 57.3227 25.9233 56.604 25.942C55.8853 25.9607 55.2507 25.97 54.7 25.97ZM55.862 18.648H56.926V25.27H55.862V18.648ZM58.48 18.648H59.558V25.27H58.48V18.648ZM76.2169 16.422H77.3789V29.106H76.2169V16.422ZM70.7009 17.402C71.3262 17.402 71.8769 17.584 72.3529 17.948C72.8382 18.3027 73.2162 18.8113 73.4869 19.474C73.7669 20.1367 73.9069 20.916 73.9069 21.812C73.9069 22.708 73.7669 23.4873 73.4869 24.15C73.2162 24.8127 72.8382 25.326 72.3529 25.69C71.8769 26.054 71.3262 26.236 70.7009 26.236C70.0756 26.236 69.5202 26.054 69.0349 25.69C68.5496 25.326 68.1669 24.8127 67.8869 24.15C67.6162 23.4873 67.4809 22.708 67.4809 21.812C67.4809 20.916 67.6162 20.1367 67.8869 19.474C68.1669 18.8113 68.5496 18.3027 69.0349 17.948C69.5202 17.584 70.0756 17.402 70.7009 17.402ZM70.7009 18.438C70.2809 18.438 69.9122 18.578 69.5949 18.858C69.2869 19.1287 69.0442 19.5207 68.8669 20.034C68.6896 20.538 68.6009 21.1307 68.6009 21.812C68.6009 22.4933 68.6896 23.0907 68.8669 23.604C69.0442 24.108 69.2869 24.5 69.5949 24.78C69.9122 25.06 70.2809 25.2 70.7009 25.2C71.1116 25.2 71.4709 25.06 71.7789 24.78C72.0962 24.5 72.3436 24.108 72.5209 23.604C72.6982 23.0907 72.7869 22.4933 72.7869 21.812C72.7869 21.1307 72.6982 20.538 72.5209 20.034C72.3436 19.5207 72.0962 19.1287 71.7789 18.858C71.4709 18.578 71.1116 18.438 70.7009 18.438ZM82.6838 18.242H83.6358V20.286C83.6358 20.958 83.5425 21.6207 83.3558 22.274C83.1691 22.918 82.9078 23.5293 82.5718 24.108C82.2451 24.6773 81.8625 25.1813 81.4238 25.62C80.9851 26.0587 80.5138 26.404 80.0098 26.656L79.3378 25.732C79.7951 25.508 80.2245 25.2047 80.6258 24.822C81.0365 24.4393 81.3958 24.0007 81.7038 23.506C82.0118 23.0113 82.2498 22.4887 82.4178 21.938C82.5951 21.3873 82.6838 20.8367 82.6838 20.286V18.242ZM82.9218 18.242H83.8598V20.286C83.8598 20.818 83.9438 21.35 84.1118 21.882C84.2891 22.4047 84.5318 22.8993 84.8398 23.366C85.1571 23.8233 85.5165 24.2293 85.9178 24.584C86.3285 24.9387 86.7671 25.2187 87.2338 25.424L86.5898 26.348C86.0765 26.1053 85.5958 25.7787 85.1478 25.368C84.6998 24.9573 84.3078 24.486 83.9718 23.954C83.6451 23.4127 83.3885 22.834 83.2018 22.218C83.0151 21.5927 82.9218 20.9487 82.9218 20.286V18.242ZM79.7438 17.724H86.8138V18.69H79.7438V17.724ZM88.5358 16.422H89.6978V29.092H88.5358V16.422ZM100.225 16.422H101.387V29.078H100.225V16.422ZM101.079 21.56H103.403V22.526H101.079V21.56ZM96.9907 17.78H98.1247C98.1247 18.984 97.9287 20.1367 97.5367 21.238C97.1447 22.33 96.5287 23.3427 95.6887 24.276C94.8487 25.2 93.7427 26.0027 92.3707 26.684L91.7267 25.788C92.9027 25.2 93.8781 24.514 94.6527 23.73C95.4367 22.9367 96.0201 22.0593 96.4027 21.098C96.7947 20.1273 96.9907 19.082 96.9907 17.962V17.78ZM92.3147 17.78H97.5787V18.746H92.3147V17.78ZM116.551 16.422H117.713V29.092H116.551V16.422ZM107.633 18.466H115.221V19.418H107.633V18.466ZM111.455 20.44C112.052 20.44 112.584 20.566 113.051 20.818C113.527 21.07 113.9 21.4153 114.171 21.854C114.442 22.2833 114.577 22.7827 114.577 23.352C114.577 23.9213 114.442 24.4253 114.171 24.864C113.9 25.3027 113.527 25.648 113.051 25.9C112.584 26.1427 112.052 26.264 111.455 26.264C110.848 26.264 110.307 26.1427 109.831 25.9C109.364 25.648 108.996 25.3027 108.725 24.864C108.454 24.4253 108.319 23.9213 108.319 23.352C108.319 22.7827 108.454 22.2833 108.725 21.854C108.996 21.4153 109.364 21.07 109.831 20.818C110.307 20.566 110.848 20.44 111.455 20.44ZM111.455 21.406C111.072 21.406 110.727 21.49 110.419 21.658C110.111 21.826 109.868 22.0547 109.691 22.344C109.514 22.6333 109.425 22.9693 109.425 23.352C109.425 23.7347 109.514 24.0753 109.691 24.374C109.868 24.6633 110.111 24.892 110.419 25.06C110.727 25.2187 111.072 25.298 111.455 25.298C111.847 25.298 112.192 25.2187 112.491 25.06C112.799 24.892 113.037 24.6633 113.205 24.374C113.382 24.0753 113.471 23.7347 113.471 23.352C113.471 22.9693 113.382 22.6333 113.205 22.344C113.037 22.0547 112.799 21.826 112.491 21.658C112.192 21.49 111.847 21.406 111.455 21.406ZM110.839 16.548H112.015V19.054H110.839V16.548ZM124.74 17.29H125.762V18.27C125.762 18.8207 125.664 19.3433 125.468 19.838C125.281 20.3327 125.02 20.7947 124.684 21.224C124.357 21.644 123.975 22.022 123.536 22.358C123.107 22.694 122.645 22.9787 122.15 23.212C121.665 23.4453 121.17 23.6227 120.666 23.744L120.148 22.778C120.587 22.6847 121.025 22.54 121.464 22.344C121.912 22.148 122.332 21.91 122.724 21.63C123.116 21.3407 123.461 21.0187 123.76 20.664C124.068 20.3093 124.306 19.9313 124.474 19.53C124.651 19.1193 124.74 18.6993 124.74 18.27V17.29ZM124.964 17.29H125.958V18.27C125.958 18.6993 126.047 19.1193 126.224 19.53C126.401 19.9313 126.639 20.3093 126.938 20.664C127.246 21.0187 127.596 21.3407 127.988 21.63C128.38 21.91 128.795 22.1527 129.234 22.358C129.682 22.554 130.13 22.694 130.578 22.778L130.046 23.744C129.542 23.6227 129.047 23.4453 128.562 23.212C128.077 22.9787 127.615 22.694 127.176 22.358C126.747 22.022 126.364 21.644 126.028 21.224C125.692 20.7947 125.431 20.3327 125.244 19.838C125.057 19.3433 124.964 18.8207 124.964 18.27V17.29ZM119.672 26.418H131.152V27.384H119.672V26.418ZM133.461 23.002H142.155V23.94H133.461V23.002ZM131.991 26.558H143.471V27.51H131.991V26.558ZM137.129 23.478H138.291V26.992H137.129V23.478ZM133.461 17.458H142.029V18.41H134.637V23.352H133.461V17.458ZM134.273 20.174H141.749V21.112H134.273V20.174ZM153.536 16.422H154.684V29.106H153.536V16.422ZM145.038 25.074H146.088C146.807 25.074 147.497 25.0647 148.16 25.046C148.832 25.018 149.509 24.9713 150.19 24.906C150.881 24.8407 151.599 24.7473 152.346 24.626L152.458 25.578C151.319 25.7647 150.246 25.8907 149.238 25.956C148.23 26.012 147.18 26.04 146.088 26.04H145.038V25.074ZM145.01 17.598H150.862V22.12H146.214V25.438H145.038V21.182H149.686V18.55H145.01V17.598ZM161.767 21.35H164.147V22.302H161.767V21.35ZM166.275 16.422H167.395V29.092H166.275V16.422ZM163.755 16.688H164.861V28.448H163.755V16.688ZM159.471 17.486C160.021 17.486 160.497 17.6633 160.899 18.018C161.309 18.3727 161.627 18.8813 161.851 19.544C162.075 20.2067 162.187 20.986 162.187 21.882C162.187 22.7873 162.075 23.5713 161.851 24.234C161.627 24.8967 161.309 25.41 160.899 25.774C160.497 26.1287 160.021 26.306 159.471 26.306C158.939 26.306 158.467 26.1287 158.057 25.774C157.655 25.41 157.343 24.8967 157.119 24.234C156.895 23.5713 156.783 22.7873 156.783 21.882C156.783 20.986 156.895 20.2067 157.119 19.544C157.343 18.8813 157.655 18.3727 158.057 18.018C158.467 17.6633 158.939 17.486 159.471 17.486ZM159.471 18.564C159.144 18.564 158.859 18.6993 158.617 18.97C158.374 19.2407 158.187 19.6233 158.057 20.118C157.926 20.6127 157.861 21.2007 157.861 21.882C157.861 22.5633 157.926 23.156 158.057 23.66C158.187 24.1547 158.374 24.5373 158.617 24.808C158.859 25.0787 159.144 25.214 159.471 25.214C159.807 25.214 160.096 25.0787 160.339 24.808C160.591 24.5373 160.782 24.1547 160.913 23.66C161.043 23.156 161.109 22.5633 161.109 21.882C161.109 21.2007 161.043 20.6127 160.913 20.118C160.782 19.6233 160.591 19.2407 160.339 18.97C160.096 18.6993 159.807 18.564 159.471 18.564ZM181.579 16.422H182.741V29.106H181.579V16.422ZM178.863 21.028H181.915V21.98H178.863V21.028ZM175.531 18.228H176.469V20.132C176.469 20.8133 176.376 21.4853 176.189 22.148C176.012 22.8013 175.76 23.4173 175.433 23.996C175.116 24.5747 174.738 25.088 174.299 25.536C173.87 25.984 173.408 26.3387 172.913 26.6L172.213 25.676C172.67 25.452 173.1 25.144 173.501 24.752C173.902 24.36 174.252 23.9167 174.551 23.422C174.859 22.918 175.097 22.386 175.265 21.826C175.442 21.2567 175.531 20.692 175.531 20.132V18.228ZM175.783 18.228H176.707V20.132C176.707 20.6547 176.791 21.1867 176.959 21.728C177.127 22.26 177.36 22.764 177.659 23.24C177.967 23.716 178.322 24.1453 178.723 24.528C179.124 24.9013 179.554 25.1953 180.011 25.41L179.325 26.334C178.821 26.082 178.354 25.7413 177.925 25.312C177.496 24.8827 177.118 24.3927 176.791 23.842C176.474 23.282 176.226 22.6847 176.049 22.05C175.872 21.4153 175.783 20.776 175.783 20.132V18.228ZM172.689 17.724H179.563V18.676H172.689V17.724ZM187.766 17.78H188.718V18.802C188.718 19.586 188.569 20.3093 188.27 20.972C187.981 21.6347 187.57 22.2133 187.038 22.708C186.515 23.2027 185.895 23.5807 185.176 23.842L184.588 22.918C185.223 22.694 185.778 22.3767 186.254 21.966C186.73 21.546 187.099 21.0653 187.36 20.524C187.631 19.9827 187.766 19.4087 187.766 18.802V17.78ZM187.976 17.78H188.928V18.802C188.928 19.3527 189.054 19.8753 189.306 20.37C189.558 20.8647 189.913 21.2987 190.37 21.672C190.827 22.0453 191.364 22.3393 191.98 22.554L191.434 23.464C190.725 23.2213 190.113 22.8713 189.6 22.414C189.087 21.9567 188.685 21.42 188.396 20.804C188.116 20.1787 187.976 19.5113 187.976 18.802V17.78ZM184.938 17.36H191.714V18.312H184.938V17.36ZM193.31 16.422H194.472V24.052H193.31V16.422ZM194.15 19.642H196.334V20.608H194.15V19.642ZM190.44 24.402C191.299 24.402 192.036 24.4953 192.652 24.682C193.277 24.8593 193.758 25.1207 194.094 25.466C194.43 25.8113 194.598 26.2313 194.598 26.726C194.598 27.2207 194.43 27.6407 194.094 27.986C193.758 28.3313 193.277 28.5973 192.652 28.784C192.036 28.9707 191.299 29.064 190.44 29.064C189.581 29.064 188.839 28.9707 188.214 28.784C187.589 28.5973 187.108 28.3313 186.772 27.986C186.436 27.6407 186.268 27.2207 186.268 26.726C186.268 26.2313 186.436 25.8113 186.772 25.466C187.108 25.1207 187.589 24.8593 188.214 24.682C188.839 24.4953 189.581 24.402 190.44 24.402ZM190.44 25.326C189.815 25.326 189.273 25.382 188.816 25.494C188.368 25.606 188.023 25.7647 187.78 25.97C187.537 26.1753 187.416 26.4273 187.416 26.726C187.416 27.0247 187.537 27.2813 187.78 27.496C188.023 27.7013 188.368 27.86 188.816 27.972C189.273 28.084 189.815 28.14 190.44 28.14C191.065 28.14 191.602 28.084 192.05 27.972C192.498 27.86 192.843 27.7013 193.086 27.496C193.329 27.2813 193.45 27.0247 193.45 26.726C193.45 26.4273 193.329 26.1753 193.086 25.97C192.843 25.7647 192.498 25.606 192.05 25.494C191.602 25.382 191.065 25.326 190.44 25.326ZM197.971 21.882H204.439V22.834H197.971V21.882ZM200.561 22.638H201.723V25.55H200.561V22.638ZM197.971 17.626H204.383V18.564H199.119V22.218H197.971V17.626ZM206.119 16.422H207.281V29.106H206.119V16.422ZM197.187 26.362L197.033 25.382C197.864 25.382 198.746 25.3773 199.679 25.368C200.612 25.3493 201.56 25.3167 202.521 25.27C203.482 25.214 204.406 25.1347 205.293 25.032L205.391 25.886C204.467 26.026 203.524 26.1333 202.563 26.208C201.611 26.2733 200.678 26.3153 199.763 26.334C198.858 26.3527 197.999 26.362 197.187 26.362ZM212.516 24.136H213.426V24.878C213.426 25.4287 213.314 25.9747 213.09 26.516C212.866 27.048 212.539 27.524 212.11 27.944C211.69 28.364 211.172 28.6907 210.556 28.924L209.982 28.056C210.514 27.86 210.967 27.594 211.34 27.258C211.723 26.9127 212.012 26.5347 212.208 26.124C212.413 25.704 212.516 25.2887 212.516 24.878V24.136ZM212.768 24.136H213.636V24.878C213.636 25.3073 213.72 25.7367 213.888 26.166C214.056 26.586 214.308 26.9733 214.644 27.328C214.98 27.6733 215.405 27.9533 215.918 28.168L215.414 29.036C214.807 28.7933 214.308 28.4527 213.916 28.014C213.524 27.5753 213.235 27.0853 213.048 26.544C212.861 25.9933 212.768 25.438 212.768 24.878V24.136ZM217.192 24.136H218.06V24.878C218.06 25.3727 217.967 25.8953 217.78 26.446C217.593 26.9873 217.304 27.4913 216.912 27.958C216.52 28.4247 216.021 28.784 215.414 29.036L214.924 28.168C215.428 27.9253 215.848 27.6173 216.184 27.244C216.52 26.8707 216.772 26.474 216.94 26.054C217.108 25.634 217.192 25.242 217.192 24.878V24.136ZM217.43 24.136H218.326V24.878C218.326 25.3167 218.424 25.746 218.62 26.166C218.825 26.586 219.115 26.9593 219.488 27.286C219.871 27.6127 220.333 27.8693 220.874 28.056L220.286 28.924C219.67 28.7 219.147 28.3827 218.718 27.972C218.298 27.5613 217.976 27.09 217.752 26.558C217.537 26.026 217.43 25.466 217.43 24.878V24.136ZM215.512 19.6H218.858V20.552H215.512V19.6ZM212.74 17.136C213.356 17.136 213.907 17.262 214.392 17.514C214.887 17.766 215.274 18.116 215.554 18.564C215.834 19.012 215.974 19.5253 215.974 20.104C215.974 20.692 215.834 21.21 215.554 21.658C215.274 22.0967 214.887 22.442 214.392 22.694C213.907 22.946 213.356 23.072 212.74 23.072C212.115 23.072 211.555 22.946 211.06 22.694C210.575 22.442 210.192 22.0967 209.912 21.658C209.632 21.21 209.492 20.692 209.492 20.104C209.492 19.5253 209.632 19.012 209.912 18.564C210.192 18.116 210.575 17.766 211.06 17.514C211.555 17.262 212.115 17.136 212.74 17.136ZM212.74 18.116C212.329 18.116 211.961 18.2 211.634 18.368C211.317 18.536 211.065 18.774 210.878 19.082C210.691 19.3807 210.598 19.7213 210.598 20.104C210.598 20.496 210.691 20.8413 210.878 21.14C211.065 21.4387 211.317 21.6767 211.634 21.854C211.961 22.022 212.329 22.106 212.74 22.106C213.141 22.106 213.501 22.022 213.818 21.854C214.145 21.6767 214.401 21.4387 214.588 21.14C214.775 20.8413 214.868 20.496 214.868 20.104C214.868 19.7213 214.775 19.3807 214.588 19.082C214.401 18.774 214.145 18.536 213.818 18.368C213.501 18.2 213.141 18.116 212.74 18.116ZM218.536 16.422H219.698V23.646H218.536V16.422ZM223.043 24.024H224.191V25.48H230.393V24.024H231.541V28.924H223.043V24.024ZM224.191 26.39V27.986H230.393V26.39H224.191ZM221.601 22.19H233.039V23.142H221.601V22.19ZM226.725 16.562H227.733V17.136C227.733 17.5747 227.639 17.99 227.453 18.382C227.266 18.7647 227.009 19.1193 226.683 19.446C226.365 19.7633 225.992 20.048 225.563 20.3C225.143 20.552 224.685 20.762 224.191 20.93C223.705 21.098 223.201 21.224 222.679 21.308L222.245 20.384C222.702 20.3187 223.145 20.216 223.575 20.076C224.013 19.936 224.424 19.768 224.807 19.572C225.189 19.3667 225.525 19.138 225.815 18.886C226.104 18.6247 226.328 18.3493 226.487 18.06C226.645 17.7613 226.725 17.4533 226.725 17.136V16.562ZM226.921 16.562H227.915V17.136C227.915 17.444 227.994 17.7473 228.153 18.046C228.321 18.3353 228.549 18.6107 228.839 18.872C229.128 19.124 229.459 19.3527 229.833 19.558C230.215 19.7633 230.621 19.9407 231.051 20.09C231.489 20.23 231.933 20.328 232.381 20.384L231.961 21.308C231.438 21.224 230.929 21.098 230.435 20.93C229.949 20.762 229.492 20.552 229.063 20.3C228.643 20.0387 228.269 19.7447 227.943 19.418C227.625 19.0913 227.373 18.7367 227.187 18.354C227.009 17.9713 226.921 17.5653 226.921 17.136V16.562ZM243.132 16.422H244.28V29.092H243.132V16.422ZM234.718 17.668H235.866V25.508H234.718V17.668ZM234.718 24.822H235.754C236.724 24.822 237.709 24.78 238.708 24.696C239.716 24.6027 240.752 24.4487 241.816 24.234L241.97 25.214C240.868 25.4473 239.809 25.6107 238.792 25.704C237.774 25.788 236.762 25.83 235.754 25.83H234.718V24.822ZM254.807 16.422H255.969V29.106H254.807V16.422ZM255.703 21.42H258.041V22.386H255.703V21.42ZM246.785 24.962H247.779C248.553 24.962 249.263 24.9527 249.907 24.934C250.56 24.906 251.185 24.8593 251.783 24.794C252.389 24.7287 253.005 24.64 253.631 24.528L253.771 25.522C253.117 25.634 252.483 25.7227 251.867 25.788C251.26 25.8533 250.625 25.8953 249.963 25.914C249.3 25.9327 248.572 25.942 247.779 25.942H246.785V24.962ZM246.785 17.654H252.651V18.606H247.933V25.41H246.785V17.654ZM259.786 28.0795C259.541 28.0795 259.331 27.9917 259.155 27.8161C258.979 27.6404 258.892 27.4299 258.892 27.1847C258.892 26.9394 258.979 26.7289 259.155 26.5533C259.331 26.3776 259.541 26.2898 259.786 26.2898C260.032 26.2898 260.242 26.3776 260.418 26.5533C260.594 26.7289 260.681 26.9394 260.681 27.1847C260.681 27.3471 260.64 27.4962 260.557 27.6321C260.478 27.768 260.37 27.8774 260.234 27.9602C260.101 28.0398 259.952 28.0795 259.786 28.0795Z" fill="white"/>
<path d="M334 20L328 26M328 20L334 26" stroke="white" stroke-width="2" stroke-linecap="round" stroke-linejoin="round"/>
</g>
</svg>
