<svg width="351" height="79" viewBox="0 0 351 79" fill="none" xmlns="http://www.w3.org/2000/svg">
<g transform="translate(-21 -28)">
<rect x="21" y="28" width="351" height="79" rx="20" fill="white"/>
<path d="M146.83 59.5H149.252V70.0234C149.252 71.1432 148.989 72.1354 148.463 73C147.937 73.8594 147.197 74.5365 146.244 75.0312C145.291 75.5208 144.174 75.7656 142.893 75.7656C141.616 75.7656 140.502 75.5208 139.549 75.0312C138.596 74.5365 137.856 73.8594 137.33 73C136.804 72.1354 136.541 71.1432 136.541 70.0234V59.5H138.955V69.8281C138.955 70.5521 139.114 71.1953 139.432 71.7578C139.754 72.3203 140.21 72.763 140.799 73.0859C141.387 73.4036 142.085 73.5625 142.893 73.5625C143.705 73.5625 144.406 73.4036 144.994 73.0859C145.588 72.763 146.041 72.3203 146.353 71.7578C146.671 71.1953 146.83 70.5521 146.83 69.8281V59.5ZM151.882 75.5V59.5H157.585C158.824 59.5 159.853 59.7135 160.671 60.1406C161.494 60.5677 162.108 61.1589 162.514 61.9141C162.921 62.6641 163.124 63.5312 163.124 64.5156C163.124 65.4948 162.918 66.3568 162.507 67.1016C162.1 67.8411 161.486 68.4167 160.663 68.8281C159.845 69.2396 158.817 69.4453 157.577 69.4453H153.257V67.3672H157.358C158.139 67.3672 158.775 67.2552 159.264 67.0312C159.759 66.8073 160.121 66.4818 160.35 66.0547C160.58 65.6276 160.694 65.1146 160.694 64.5156C160.694 63.9115 160.577 63.388 160.343 62.9453C160.113 62.5026 159.751 62.1641 159.257 61.9297C158.767 61.6901 158.124 61.5703 157.327 61.5703H154.296V75.5H151.882ZM159.78 68.2812L163.733 75.5H160.983L157.108 68.2812H159.78ZM165.181 75.5V59.5H167.595V73.4219H174.845V75.5H165.181ZM181.004 67.558H198.978V69.076H181.004V67.558ZM189.078 64.61H190.904V68.042H189.078V64.61ZM183.006 71.012H196.756V77.216H194.93V72.486H183.006V71.012ZM183.38 57.768H185.184V60.034H194.82V57.768H196.624V65.226H183.38V57.768ZM185.184 61.442V63.752H194.82V61.442H185.184ZM205.224 59.022H206.72V62.586C206.72 63.686 206.581 64.764 206.302 65.82C206.038 66.876 205.657 67.866 205.158 68.79C204.659 69.714 204.073 70.5353 203.398 71.254C202.723 71.9727 201.99 72.5447 201.198 72.97L200.076 71.496C200.809 71.1293 201.484 70.638 202.1 70.022C202.731 69.3913 203.281 68.6727 203.75 67.866C204.219 67.0593 204.579 66.2087 204.828 65.314C205.092 64.4047 205.224 63.4953 205.224 62.586V59.022ZM205.554 59.022H207.028V62.586C207.028 63.466 207.153 64.3387 207.402 65.204C207.666 66.0693 208.033 66.8833 208.502 67.646C208.971 68.4087 209.507 69.0907 210.108 69.692C210.724 70.2933 211.384 70.77 212.088 71.122L210.966 72.574C210.189 72.178 209.47 71.6353 208.81 70.946C208.165 70.2567 207.593 69.472 207.094 68.592C206.61 67.6973 206.229 66.744 205.95 65.732C205.686 64.7053 205.554 63.6567 205.554 62.586V59.022ZM213.826 57.306H215.652V77.216H213.826V57.306ZM215.234 65.358H218.908V66.92H215.234V65.358ZM233.206 57.306H235.01V77.216H233.206V57.306ZM234.592 65.49H238.266V67.03H234.592V65.49ZM219.61 60.496H231.336V61.992H219.61V60.496ZM225.572 63.62C226.511 63.62 227.34 63.818 228.058 64.214C228.792 64.61 229.364 65.1527 229.774 65.842C230.2 66.5167 230.412 67.3013 230.412 68.196C230.412 69.0907 230.2 69.8827 229.774 70.572C229.364 71.2613 228.792 71.804 228.058 72.2C227.34 72.5813 226.511 72.772 225.572 72.772C224.634 72.772 223.798 72.5813 223.064 72.2C222.346 71.804 221.774 71.2613 221.348 70.572C220.923 69.8827 220.71 69.0907 220.71 68.196C220.71 67.3013 220.923 66.5167 221.348 65.842C221.774 65.1527 222.346 64.61 223.064 64.214C223.798 63.818 224.634 63.62 225.572 63.62ZM225.572 65.138C224.971 65.138 224.436 65.27 223.966 65.534C223.497 65.798 223.123 66.1573 222.844 66.612C222.58 67.0667 222.448 67.5947 222.448 68.196C222.448 68.7973 222.58 69.3327 222.844 69.802C223.123 70.2567 223.497 70.616 223.966 70.88C224.436 71.1293 224.971 71.254 225.572 71.254C226.159 71.254 226.687 71.1293 227.156 70.88C227.626 70.616 227.992 70.2567 228.256 69.802C228.535 69.3327 228.674 68.7973 228.674 68.196C228.674 67.5947 228.535 67.0667 228.256 66.612C227.992 66.1573 227.626 65.798 227.156 65.534C226.687 65.27 226.159 65.138 225.572 65.138ZM224.626 57.548H226.452V61.156H224.626V57.548ZM253.577 57.306H255.403V77.216H253.577V57.306ZM247.747 59.462H249.551C249.551 60.8993 249.375 62.2853 249.023 63.62C248.685 64.9547 248.15 66.2233 247.417 67.426C246.683 68.614 245.73 69.7213 244.557 70.748C243.383 71.7747 241.961 72.6913 240.289 73.498L239.321 72.024C241.242 71.1 242.826 70.022 244.073 68.79C245.319 67.558 246.243 66.1867 246.845 64.676C247.446 63.1507 247.747 61.508 247.747 59.748V59.462ZM240.245 59.462H248.517V60.936H240.245V59.462Z" fill="#2251DD"/>
</g>
<defs>
<filter id="filter0_d_834_1156" x="-15" y="0" width="423" height="151" filterUnits="userSpaceOnUse" color-interpolation-filters="sRGB">
<feFlood flood-opacity="0" result="BackgroundImageFix"/>
<feColorMatrix in="SourceAlpha" type="matrix" values="0 0 0 0 0 0 0 0 0 0 0 0 0 0 0 0 0 0 127 0" result="hardAlpha"/>
<feOffset dy="8"/>
<feGaussianBlur stdDeviation="18"/>
<feComposite in2="hardAlpha" operator="out"/>
<feColorMatrix type="matrix" values="0 0 0 0 0 0 0 0 0 0 0 0 0 0 0 0 0 0 0.08 0"/>
<feBlend mode="normal" in2="BackgroundImageFix" result="effect1_dropShadow_834_1156"/>
<feBlend mode="normal" in="SourceGraphic" in2="effect1_dropShadow_834_1156" result="shape"/>
</filter>
</defs>
</svg>
