<svg width="13" height="11" viewBox="0 0 13 11" fill="none" xmlns="http://www.w3.org/2000/svg">
<path d="M6.5 3.87117V6.08078M6.5 8.29039H6.50574M5.518 1.03182L0.653916 8.84279C0.553629 9.00985 0.500566 9.19926 0.500005 9.39217C0.499443 9.58508 0.551403 9.77477 0.650715 9.94236C0.750027 10.11 0.893229 10.2496 1.06607 10.3475C1.23892 10.4453 1.43538 10.4979 1.63592 10.5H11.3641C11.5646 10.4979 11.7611 10.4453 11.9339 10.3475C12.1068 10.2496 12.25 10.11 12.3493 9.94236C12.4486 9.77477 12.5006 9.58508 12.5 9.39217C12.4994 9.19926 12.4464 9.00985 12.3461 8.84279L7.482 1.03182C7.37963 0.869475 7.23548 0.735248 7.06347 0.642093C6.89146 0.548938 6.6974 0.5 6.5 0.5C6.3026 0.5 6.10854 0.548938 5.93653 0.642093C5.76452 0.735248 5.62037 0.869475 5.518 1.03182Z" stroke="#323232" stroke-linecap="round" stroke-linejoin="round"/>
</svg>
