<svg width="36" height="29" viewBox="0 0 36 29" fill="none" xmlns="http://www.w3.org/2000/svg">
<path d="M35 16.75V15C35 14.0717 34.6418 13.1815 34.0042 12.5251C33.3665 11.8687 32.5017 11.5 31.6 11.5H24.8C23.8983 11.5 23.0335 11.8687 22.3958 12.5251C21.7582 13.1815 21.4 14.0717 21.4 15V16.75M21.4 28V25.5C21.4 24.1739 20.8627 22.9021 19.9062 21.9645C18.9498 21.0268 17.6526 20.5 16.3 20.5H6.1C4.7474 20.5 3.45019 21.0268 2.49376 21.9645C1.53732 22.9021 1 24.1739 1 25.5V28M31.6 4.5C31.6 6.433 30.0778 8 28.2 8C26.3222 8 24.8 6.433 24.8 4.5C24.8 2.567 26.3222 1 28.2 1C30.0778 1 31.6 2.567 31.6 4.5ZM16.3 10.5C16.3 13.2614 14.0167 15.5 11.2 15.5C8.38335 15.5 6.1 13.2614 6.1 10.5C6.1 7.73858 8.38335 5.5 11.2 5.5C14.0167 5.5 16.3 7.73858 16.3 10.5Z" stroke="#B1B1B1" stroke-width="2" stroke-linecap="round" stroke-linejoin="round"/>
</svg>
